<svg width="92" height="92" viewBox="0 0 92 92" fill="none" xmlns="http://www.w3.org/2000/svg">
<circle cx="46" cy="46" r="45" stroke="#C6A57C" stroke-width="2"/>
<g clip-path="url(#clip0_59_460)">
<path d="M32.1812 24.1289C30.9609 24.4039 30.1961 24.9367 28.5461 26.6469C26.8273 28.4344 25.8734 29.8094 25.1258 31.5625C23.9742 34.2867 23.7164 37.3289 24.3867 40.2594C24.8594 42.3133 25.7101 44.0664 27.0765 45.8281C27.6781 46.6016 38.8586 57.7391 38.8586 57.7391V56.5617L39.8383 56.3125L32.1383 48.5867C30.2304 46.6703 28.4945 44.8656 28.2797 44.5821C25.9422 41.4711 25.1859 37.7071 26.1398 33.9344C26.5094 32.4992 27.3515 30.6946 28.0906 29.7836L28.2883 29.543L31.5797 32.8258C33.4273 34.6735 34.9828 36.1516 35.1203 36.2031C35.7992 36.4524 36.4523 35.7992 36.2031 35.1289C36.1515 34.9828 34.6906 33.4532 32.7828 31.5453L29.457 28.211L30.3593 27.3C31.339 26.3117 31.7515 26.0282 32.439 25.8391C33.264 25.6242 34.1148 25.7446 34.8539 26.1742C35.0515 26.2946 36.7875 27.9703 38.7039 29.9039C41.9008 33.1094 42.2101 33.4532 42.3734 33.8828C42.7172 34.8367 42.6914 35.7047 42.2875 36.5383C42.15 36.8047 41.4195 37.6211 39.9672 39.0906C37.8359 41.2477 37.8359 41.2477 37.8359 41.6258V42.0039L43.9203 48.0797C49.5148 53.6742 50.0218 54.1641 50.2797 54.1641C50.6664 54.1641 50.8554 54.0524 51.3968 53.5367L51.8437 53.0899L57.1289 58.375C60.0336 61.2797 62.414 63.686 62.414 63.7289C62.414 63.8149 61.1078 64.6571 60.4547 64.9836C58.65 65.8946 56.4156 66.3586 54.4047 66.2469C52.6086 66.1524 51.0789 65.7656 49.4804 64.9922C47.8906 64.2274 47.3578 63.7805 43.4562 59.9047L39.8383 56.3125L38.8586 56.5617V57.7391C38.8586 57.7391 45.4929 64.4164 46.2406 64.975C50.4773 68.1977 55.7367 68.8766 60.5062 66.8399C62.3367 66.0492 63.6429 65.1211 65.525 63.2649C67.5101 61.3055 67.9484 60.4891 67.957 58.7617C67.957 57.7133 67.7422 56.9571 67.2179 56.1406C66.7281 55.3672 60.2656 48.9047 59.4922 48.4149C58.6758 47.8906 57.9195 47.6758 56.8711 47.6758C55.814 47.6758 55.0492 47.8992 54.25 48.4149C53.932 48.6211 52.9695 49.4891 52.0156 50.4344L50.3312 52.093L45.0976 46.8594L39.864 41.6258L41.7117 39.7524C43.1383 38.3 43.6023 37.7758 43.7828 37.4063C44.2125 36.4867 44.307 36.1172 44.3156 35.1719C44.3242 34.0977 44.1094 33.3242 43.5765 32.4821C43.0953 31.7344 36.6156 25.2633 35.8679 24.7821C34.8281 24.1117 33.3672 23.8539 32.1812 24.1289ZM57.6101 49.4719C57.8851 49.5321 58.2719 49.6867 58.4695 49.8071C59.0023 50.1164 65.7054 56.8711 65.9203 57.3008C66.2211 57.8938 66.3242 58.65 66.2039 59.3117C66.0492 60.1367 65.7828 60.5578 64.7258 61.6063L63.789 62.543L58.4437 57.1891L53.0898 51.8438L53.9922 50.9328C54.9804 49.9446 55.4187 49.6352 56.089 49.4719C56.6734 49.3344 57.0258 49.3344 57.6101 49.4719Z" fill="#C6A57C"/>
<path d="M49.7811 24.1375C48.9991 24.3438 48.3975 24.6961 47.8045 25.2891C47.203 25.8907 46.8592 26.4922 46.653 27.3086C46.4467 28.0735 46.4467 38.3172 46.653 39.0821C47.0569 40.6633 48.2514 41.8492 49.8413 42.2617C50.2022 42.3563 50.8209 42.3907 52.1959 42.3907H54.0694L55.3155 44.0149C56.003 44.9086 56.6647 45.725 56.7936 45.8196C57.0514 46.0258 57.378 46.043 57.6616 45.8883C57.7733 45.8282 58.4436 45.0203 59.1483 44.0836L60.446 42.3907H62.3108C63.6944 42.3907 64.3131 42.3563 64.6741 42.2617C66.2725 41.8492 67.4928 40.6032 67.871 39.0219C68.06 38.2227 68.06 28.168 67.871 27.3688C67.4928 25.7875 66.2725 24.5414 64.6741 24.1289C63.9436 23.9399 50.4944 23.9485 49.7811 24.1375ZM64.7428 25.9422C65.2585 26.1828 65.817 26.7414 66.0577 27.2571C66.2381 27.6524 66.2381 27.7039 66.2381 33.1953C66.2381 38.6867 66.2381 38.7383 66.0577 39.1336C65.817 39.6493 65.2585 40.2078 64.7428 40.4485C64.3819 40.6118 64.167 40.6289 62.0186 40.6719C59.8358 40.7149 59.6725 40.7235 59.492 40.8867C59.3889 40.9813 58.8561 41.6344 58.3147 42.3477C57.7733 43.0524 57.3092 43.6453 57.2749 43.6539C57.2405 43.6625 56.7764 43.0953 56.2436 42.3993C55.7022 41.6946 55.1694 41.0243 55.0491 40.9125C54.8428 40.7149 54.8084 40.7149 52.5053 40.6719C50.3483 40.6289 50.1334 40.6118 49.7725 40.4485C49.2569 40.2078 48.6983 39.6493 48.4577 39.1336C48.2772 38.7469 48.2772 38.6524 48.2514 33.4532C48.2342 29.7922 48.2514 28.0305 48.3202 27.7211C48.5006 26.8789 49.1452 26.1657 49.9959 25.8735C50.3913 25.736 50.9584 25.7274 57.3866 25.7446C64.3045 25.7617 64.3475 25.7617 64.7428 25.9422Z" fill="#C6A57C"/>
<path d="M56.3382 27.6008C55.7367 27.807 55.2468 28.1594 54.8945 28.6406C54.3788 29.3367 54.164 30.2391 54.3788 30.7547C54.5163 31.0812 54.9804 31.3391 55.2554 31.2531C55.771 31.0898 55.8913 30.9352 56.0203 30.2734C56.1062 29.818 56.3038 29.5344 56.682 29.3281C57.464 28.8812 58.4953 29.4914 58.4867 30.3852C58.4695 31.0641 58.2203 31.3734 57.4296 31.6828C56.596 32.0094 56.3984 32.4047 56.3984 33.7539C56.3984 35.0859 56.5788 35.4297 57.2578 35.4297C57.8937 35.4297 58.1171 35.0602 58.1171 34.0203V33.2898L58.5984 33.0492C59.1999 32.757 59.7757 32.1297 60.0078 31.5023C60.2226 30.9352 60.257 30.0414 60.0937 29.543C59.5867 27.9789 57.8421 27.0766 56.3382 27.6008Z" fill="#C6A57C"/>
<path d="M56.9484 36.882C56.6906 36.9937 56.3984 37.3891 56.3984 37.6383C56.3984 38.1195 56.8109 38.5234 57.3008 38.5234C57.4211 38.5234 57.6359 38.4117 57.7906 38.2742C58.0227 38.068 58.0742 37.9648 58.0742 37.6727C58.0742 37.0969 57.4641 36.6672 56.9484 36.882Z" fill="#C6A57C"/>
</g>
<defs>
<clipPath id="clip0_59_460">
<rect width="44" height="44" fill="white" transform="translate(24 24)"/>
</clipPath>
</defs>
</svg>
