<svg width="92" height="92" viewBox="0 0 92 92" fill="none" xmlns="http://www.w3.org/2000/svg">
<circle cx="46" cy="46" r="45" stroke="#C6A57C" stroke-width="2"/>
<path d="M36.3145 32.0777C33.4145 32.4516 30.5371 33.641 28.0336 35.4988C26.7422 36.4504 25.2355 37.8891 24.6012 38.7727L24.2273 39.2938L22.4035 39.3391C20.727 39.3731 20.5344 39.3957 20.0926 39.6449C19.5715 39.9508 19.2543 40.3246 19.0617 40.891C18.9711 41.1516 18.9258 42.2844 18.9258 44.3121V47.3594H18.2914C17.7477 47.3594 17.623 47.4047 17.3285 47.6879L17 48.0164V51.143V54.2695L17.3059 54.6094C17.6117 54.9379 17.759 54.9832 21.3727 55.6969L25.1109 56.4559L25.4395 57.0902C26.3457 58.8348 28.3734 60.0469 30.4238 60.0469C32.4176 60.0469 34.468 58.9254 35.3629 57.3395L35.6234 56.875H37.3113H38.9992C38.9992 56.875 39.2371 55.0625 37.6059 55.0625H36.1445V54.1676C36.1445 53.6692 36.1105 53.1934 36.0766 53.0914C36.0086 52.9215 37.0508 52.9102 47.3367 52.9102H58.6535L58.5516 53.4992C58.4949 53.8277 58.4609 54.3149 58.4836 54.5754L58.5176 55.0625H50.3953C42.409 55.0625 37.6059 55.0625 37.6059 55.0625L38.9992 56.875L50.6785 56.8524L59.118 56.875L59.2652 57.2488C59.3445 57.4414 59.7523 57.9399 60.1602 58.3477C62.0066 60.1942 64.6688 60.5793 67.0023 59.3332C67.7727 58.9254 68.7355 58.0192 69.1094 57.3508L69.3586 56.8977L71.0238 56.8637C72.5645 56.8184 72.723 56.7957 73.3234 56.5012C74.0371 56.15 74.4789 55.6969 74.7961 54.9719C75 54.5301 75.0113 54.2129 74.9773 50.4406L74.9434 46.3965L74.5809 45.6375C74.173 44.7652 73.516 44.0063 72.7344 43.5078C71.5449 42.7375 63.8191 40.6871 63.8191 40.6871L71.7602 45.0371L70.4688 45.1731C68.9281 45.3317 68.3277 45.5356 67.852 46.0793C67.5234 46.4645 67.5008 46.5324 67.5461 47.1781C67.5801 47.7219 67.6594 47.9824 67.9426 48.3902C68.7016 49.5004 70.3441 50.2594 72.2246 50.384L73.3008 50.452V50.7805V51.0977H71.1938H69.0754L68.3844 50.384C66.0621 48.0164 62.4711 47.9938 60.1262 50.3274L59.3559 51.0977H47.3367H35.3176L34.6266 50.384C32.3043 48.0164 28.7133 47.9938 26.3684 50.3274L25.598 51.0977H22.1543H18.6992V50.1461V49.1945L19.5035 49.1492C20.4551 49.1039 20.7383 48.866 20.7383 48.1524V47.7332L22.041 47.6766C23.2645 47.6313 23.3777 47.6086 23.8195 47.2914C24.4766 46.8383 24.7258 46.3625 24.7938 45.4563C24.8617 44.3688 24.7031 43.9496 23.6723 42.4883L22.7547 41.1856L23.9555 41.1516L25.1562 41.1176L25.4621 40.7098C27.116 38.5688 28.2148 37.5266 30.118 36.2805C31.0355 35.6914 32.6441 34.8758 33.1992 34.7399L33.4824 34.6606L33.1992 34.8645C31.4547 36.1219 29.6648 37.7305 29.2117 38.4668C28.9398 38.9199 28.9398 39.8262 29.223 40.336C29.3477 40.5852 29.6195 40.8231 29.9254 40.9817C30.4125 41.2195 30.707 41.2309 44.3008 41.6613C51.9359 41.9106 59.4125 42.1031 60.9305 42.0918C61.9277 42.1193 62.9163 42.2837 63.8688 42.5802L71.7602 45.0371L63.8191 40.6871C63.8191 40.6871 62.1199 40.2 59.9789 40.2453L58.3816 40.2793L56.4105 38.4555C53.9523 36.2012 53.4199 35.7481 52.2871 35.0117C50.4746 33.8336 48.0844 32.8707 45.9887 32.4629C43.9949 32.0777 38.1383 31.8512 36.3145 32.0777ZM42.7488 34.0149C42.8621 34.1055 42.9754 34.4567 43.0547 34.8985C43.202 35.8613 43.1793 38.2969 43.0207 39.0899L42.8848 39.7129L42.2051 39.7469C41.548 39.7809 30.9109 39.441 30.8543 39.3844C30.7977 39.3277 32.6895 37.5152 33.1992 37.1301C35.7367 35.2156 39.1012 33.9129 41.5934 33.8902C42.2051 33.8789 42.6242 33.9356 42.7488 34.0149ZM46.4984 34.4567C47.6539 34.7512 48.5375 35.091 49.7949 35.7254C51.2449 36.4504 52.3324 37.2434 54.0543 38.8067L55.5609 40.166L55.1418 40.2C54.6434 40.2453 44.8445 39.9055 44.7879 39.8375C44.7652 39.8149 44.8105 39.4184 44.8785 38.9652C45.0145 38.0817 44.9691 34.6719 44.8105 34.2981C44.7313 34.1055 44.7652 34.0942 45.1617 34.1621C45.4109 34.2074 46 34.3434 46.4984 34.4567ZM22.075 43.4059C22.868 44.5387 23.0039 44.7992 23.0039 45.1957C23.0039 45.7961 22.8227 45.8867 21.6559 45.8867H20.7383V43.7231C20.7383 41.6047 20.7383 41.5594 20.9422 41.8199C21.0555 41.9672 21.5652 42.6809 22.075 43.4059ZM73.1875 47.1555C73.1875 47.3027 73.2215 47.6879 73.2555 48.0051L73.3348 48.6055H72.757C71.5563 48.6055 70.2875 48.1637 69.6418 47.5293C69.4719 47.3481 69.3586 47.1895 69.3813 47.1555C69.4945 47.0535 70.7633 46.9402 71.9754 46.9176C73.1648 46.9063 73.1875 46.9063 73.1875 47.1555ZM32.1004 50.8031C32.8707 51.177 33.573 51.8567 33.9695 52.627C34.2414 53.1254 34.2754 53.318 34.2754 54.3262C34.2754 55.3344 34.2414 55.527 33.9695 56.0254C33.573 56.7957 32.8707 57.4754 32.0891 57.8606C31.534 58.1324 31.3074 58.1777 30.4805 58.1777C29.6195 58.1777 29.4383 58.1324 28.7586 57.8039C27.0141 56.943 26.1758 55.0852 26.7309 53.2727C27.1273 51.9473 28.0449 51.007 29.3816 50.5766C30.1293 50.3274 31.3527 50.4293 32.1004 50.8031ZM65.8582 50.8031C66.6285 51.177 67.3309 51.8567 67.7273 52.627C67.9992 53.1254 68.0332 53.318 68.0332 54.3262C68.0332 55.3344 67.9992 55.527 67.7273 56.0254C66.3113 58.7215 62.6977 58.982 60.9984 56.5012C60.3074 55.493 60.1375 54.4281 60.4887 53.2727C60.8852 51.9473 61.8027 51.007 63.1395 50.5766C63.8871 50.3274 65.1105 50.4293 65.8582 50.8031ZM24.7711 53.7145C24.6805 54.3488 24.6238 54.5074 24.4879 54.4621C24.3859 54.4395 23.0492 54.1676 21.5086 53.8617C19.0957 53.3973 18.6992 53.284 18.6992 53.1141C18.6992 52.9215 18.9031 52.9102 21.7918 52.9102H24.8844L24.7711 53.7145ZM73.2668 53.4652C73.1195 54.7453 72.6551 55.0625 70.9898 55.0625H69.9023V54.1676C69.9023 53.6692 69.8684 53.1934 69.8344 53.0914C69.7777 52.9328 69.9703 52.9102 71.5449 52.9102H73.3348L73.2668 53.4652Z" fill="#C6A57C"/>
<path d="M29.1439 51.8453C27.1501 52.8422 27.1275 55.7195 29.1099 56.7957C30.1521 57.3734 31.5454 57.1922 32.3837 56.3879C33.0181 55.7875 33.2447 55.2324 33.2447 54.3262C33.2447 53.4199 33.0181 52.8648 32.3837 52.2644C31.5681 51.4828 30.22 51.3015 29.1439 51.8453ZM31.2056 53.7144C31.5794 54.1562 31.5794 54.4961 31.2056 54.9379C30.6165 55.6402 29.4611 55.2324 29.4611 54.3262C29.4611 53.4199 30.6165 53.0121 31.2056 53.7144Z" fill="#C6A57C"/>
<path d="M62.9017 51.8453C60.9079 52.8422 60.8853 55.7195 62.8677 56.7957C63.9099 57.3734 65.3032 57.1922 66.1415 56.3879C66.7759 55.7875 67.0025 55.2324 67.0025 54.3262C67.0025 53.4199 66.7759 52.8648 66.1415 52.2644C65.3259 51.4828 63.9779 51.3015 62.9017 51.8453ZM64.9634 53.7144C65.122 53.907 65.2579 54.1789 65.2579 54.3262C65.2579 54.4734 65.122 54.7453 64.9634 54.9379C64.3743 55.6402 63.2189 55.2324 63.2189 54.3262C63.2189 53.4199 64.3743 53.0121 64.9634 53.7144Z" fill="#C6A57C"/>
<path d="M32.6892 43.1114C32.3154 43.4739 32.3041 44.0516 32.6666 44.3915C33.0517 44.754 34.1845 44.754 34.5357 44.3801C34.8755 44.0176 34.8642 43.4625 34.5017 43.1114C34.2751 42.8735 34.1166 42.8282 33.5955 42.8282C33.0744 42.8282 32.9158 42.8735 32.6892 43.1114Z" fill="#C6A57C"/>
<path d="M45.5809 42.9414C45.0711 43.1453 44.9465 43.8477 45.3317 44.3461C45.5356 44.6066 45.6375 44.6406 46.2719 44.6406C46.861 44.6406 47.0196 44.5953 47.2235 44.3801C47.5633 44.0176 47.552 43.4625 47.1895 43.1113C46.9743 42.8848 46.8044 42.8281 46.3739 42.8394C46.0793 42.8394 45.7168 42.8848 45.5809 42.9414Z" fill="#C6A57C"/>
</svg>
