<svg width="92" height="92" viewBox="0 0 92 92" fill="none" xmlns="http://www.w3.org/2000/svg">
<circle cx="46" cy="46" r="45" stroke="#C6A57C" stroke-width="2"/>
<g clip-path="url(#clip0_59_441)">
<path d="M44.6876 22.1875C44.3501 22.2813 43.872 22.4781 43.6095 22.6188C43.0282 22.9469 42.147 23.8094 41.8938 24.3063L41.697 24.6906L40.6095 24.7469C39.4095 24.8125 38.9595 24.9531 38.3876 25.4594L38.0501 25.75H34.6376C31.9188 25.75 31.122 25.7781 30.6907 25.8906C28.9563 26.3406 27.6532 27.6438 27.2032 29.3781C26.9876 30.1844 26.9876 65.5656 27.2032 66.3719C27.6532 68.1063 28.9563 69.4094 30.6907 69.8594C31.497 70.075 60.5032 70.075 61.3095 69.8594C63.0438 69.4094 64.347 68.1063 64.797 66.3719C64.9188 65.9219 64.9376 64.7969 64.9376 59.3781V59.4063H63.0626C63.0157 65.9219 63.0157 66.025 62.8188 66.4469C62.5563 67.0094 61.947 67.6188 61.3845 67.8813L60.9532 68.0781H46.0001H31.047L30.6157 67.8813C30.0532 67.6188 29.4438 67.0094 29.1813 66.4469L28.9845 66.0156V47.875V29.7344L29.1813 29.3031C29.4438 28.7406 30.0532 28.1313 30.6157 27.8688C31.0282 27.6813 31.197 27.6719 34.3095 27.6438L37.5626 27.6156V28.5531V29.4906L34.8157 29.5188L32.0595 29.5469L31.722 29.7813C31.5251 29.9125 31.2532 30.1844 31.1126 30.3813L30.8595 30.7469V47.875V64.9938L31.0938 65.3406C31.2251 65.5375 31.497 65.8094 31.6938 65.95L32.0595 66.2031H46.0001H59.9407L60.3063 65.95C60.5032 65.8094 60.7751 65.5375 60.9063 65.3406L61.1407 64.9938V47.875V30.7469L60.8876 30.3813C60.747 30.1844 60.4751 29.9125 60.2782 29.7813L59.9407 29.5469L57.1845 29.5188L54.4376 29.4906V28.5531V27.6156L57.7001 27.6438C60.8032 27.6719 60.972 27.6813 61.3845 27.8688C61.947 28.1313 62.5563 28.7406 62.8188 29.3031C63.0157 29.7344 63.0157 29.8 63.0626 37.6563C63.0907 42.0156 63.0626 59.4063 63.0626 59.4063H64.9376C65.022 59.2281 64.9376 43.4875 64.9376 37.675C64.9376 31.1031 64.9188 29.8281 64.797 29.3781C64.347 27.6438 63.0438 26.3406 61.3095 25.8906C60.8782 25.7781 60.0813 25.75 57.3626 25.75H53.9501L53.6126 25.4594C53.0407 24.9531 52.5907 24.8125 51.3907 24.7469L50.3032 24.6906L50.1063 24.3063C49.8532 23.8094 48.972 22.9469 48.3907 22.6188C47.3032 22.0188 45.8688 21.85 44.6876 22.1875ZM46.8626 24.0063C47.7157 24.2594 48.5782 25.1031 48.7657 25.8531C48.8032 25.9938 48.9532 26.2188 49.1032 26.3688C49.3751 26.6313 49.3938 26.6313 50.8282 26.6875C52.647 26.7438 52.5532 26.6688 52.5626 28.3V29.5H46.0001H39.4376V28.3C39.447 26.6688 39.3532 26.7438 41.172 26.6875C42.6063 26.6313 42.6251 26.6313 42.897 26.3688C43.047 26.2188 43.197 25.9938 43.2345 25.8531C43.3376 25.4219 43.8532 24.7188 44.2938 24.4188C45.0532 23.8938 46.0001 23.7438 46.8626 24.0063ZM59.3126 47.875V64.375H46.0001H32.6876V47.875V31.375H46.0001H59.3126V47.875Z" fill="#C6A57C"/>
<path d="M40.8906 34.4782C40.1313 35.2001 40.1031 35.2282 39.8875 35.0969C39.4656 34.8157 39.0344 34.8626 38.6781 35.2094C38.4813 35.4157 38.4062 35.5751 38.4062 35.8282C38.4062 36.1188 38.4906 36.2594 38.95 36.7376C39.5781 37.4126 39.9625 37.6094 40.3469 37.4594C40.7406 37.3188 42.8875 35.1438 42.9625 34.8157C43.0844 34.2438 42.6156 33.7188 41.9688 33.7188C41.7344 33.7188 41.5281 33.8688 40.8906 34.4782Z" fill="#C6A57C"/>
<path d="M35.9125 34.0938C35.8 34.1313 35.6219 34.2906 35.5094 34.4313C35.3219 34.675 35.3125 34.7688 35.3125 37.1969V39.7188L35.5844 40.0188L35.8563 40.3281L38.4438 40.3563L41.0219 40.3844L41.3313 40.1031C41.5844 39.8781 41.6406 39.7656 41.6406 39.4375C41.6406 39.1094 41.5844 38.9969 41.3313 38.7719L41.0312 38.5H39.1094H37.1969L37.1688 36.5219L37.1406 34.5438L36.8313 34.2719C36.5219 34 36.2688 33.9438 35.9125 34.0938Z" fill="#C6A57C"/>
<path d="M50.4437 38.5938C50.1437 38.7156 49.8438 39.1469 49.8438 39.4469C49.8438 39.6156 49.9469 39.8313 50.1156 40.0188L50.3875 40.3281L53.4156 40.3562C56.5937 40.3844 56.8375 40.3562 57.1094 39.9625C57.2687 39.7375 57.2969 39.2219 57.1562 38.9594C56.9219 38.5281 56.6969 38.5 53.575 38.5094C51.9625 38.5094 50.5469 38.5469 50.4437 38.5938Z" fill="#C6A57C"/>
<path d="M40.8813 44.6125C40.15 45.325 40.0844 45.3625 39.9344 45.2219C39.3719 44.725 38.4062 45.1563 38.4062 45.9156C38.4062 46.2344 38.6594 46.6094 39.2031 47.1156C39.6625 47.5281 39.7844 47.5938 40.1125 47.5938C40.4781 47.5938 40.5531 47.5375 41.65 46.4594C42.2781 45.8313 42.85 45.2031 42.9063 45.0531C43.15 44.4719 42.7094 43.8438 42.0531 43.8438C41.6969 43.8438 41.6125 43.9 40.8813 44.6125Z" fill="#C6A57C"/>
<path d="M35.6594 44.35C35.5282 44.4719 35.3875 44.6781 35.3594 44.8C35.3313 44.9219 35.3125 46.1219 35.3313 47.4719L35.3594 49.9375L35.6219 50.1906L35.875 50.4531H38.4907H41.1063L41.35 50.2281C41.7907 49.8156 41.7625 49.1781 41.275 48.7937C41.1063 48.6531 40.8344 48.625 39.1375 48.625H37.1875V46.7406C37.1875 45.5406 37.15 44.7906 37.0844 44.6594C36.7938 44.0969 36.0907 43.9469 35.6594 44.35Z" fill="#C6A57C"/>
<path d="M46.3187 48.7188C46.0187 48.8407 45.7188 49.2719 45.7188 49.5719C45.7188 49.7407 45.8219 49.9563 45.9906 50.1438L46.2625 50.4532L51.3531 50.4813C56.7062 50.5094 56.8281 50.5001 57.1094 50.0876C57.2687 49.8626 57.2969 49.3469 57.1562 49.0844C56.9031 48.6251 56.8562 48.6251 51.5125 48.6344C48.7656 48.6344 46.4219 48.6719 46.3187 48.7188Z" fill="#C6A57C"/>
<path d="M40.8906 54.7281C40.1313 55.45 40.1031 55.4781 39.8875 55.3469C39.4656 55.0656 39.0344 55.1125 38.6781 55.4594C38.4813 55.6656 38.4062 55.825 38.4062 56.0781C38.4062 56.3688 38.4906 56.5094 38.95 56.9875C39.5781 57.6625 39.9625 57.8594 40.3469 57.7094C40.7406 57.5688 42.8875 55.3938 42.9625 55.0656C43.0844 54.4938 42.6156 53.9688 41.9688 53.9688C41.7344 53.9688 41.5281 54.1188 40.8906 54.7281Z" fill="#C6A57C"/>
<path d="M35.9125 54.3438C35.8 54.3813 35.6219 54.5406 35.5094 54.6813C35.3219 54.925 35.3125 55.0188 35.3125 57.4469V59.9688L35.5844 60.2688L35.8563 60.5781L38.4438 60.6063L41.0219 60.6344L41.3313 60.3531C41.5844 60.1281 41.6406 60.0156 41.6406 59.6875C41.6406 59.3594 41.5844 59.2469 41.3313 59.0219L41.0312 58.75H39.1094H37.1969L37.1688 56.7719L37.1406 54.7938L36.8313 54.5219C36.5219 54.25 36.2688 54.1938 35.9125 54.3438Z" fill="#C6A57C"/>
<path d="M46.3187 58.8438C46.0187 58.9657 45.7188 59.3969 45.7188 59.6969C45.7188 59.8657 45.8219 60.0813 45.9906 60.2688L46.2625 60.5782L51.3531 60.6063C56.7062 60.6344 56.8281 60.6251 57.1094 60.2126C57.2687 59.9876 57.2969 59.4719 57.1562 59.2094C56.9031 58.7501 56.8562 58.7501 51.5125 58.7594C48.7656 58.7594 46.4219 58.7969 46.3187 58.8438Z" fill="#C6A57C"/>
</g>
<defs>
<clipPath id="clip0_59_441">
<rect width="48" height="48" fill="white" transform="translate(22 22)"/>
</clipPath>
</defs>
</svg>
