<svg width="92" height="92" viewBox="0 0 92 92" fill="none" xmlns="http://www.w3.org/2000/svg">
<circle cx="46" cy="46" r="45" stroke="#C6A57C" stroke-width="2"/>
<path d="M27.1749 22.2906C26.5187 22.6188 26.1999 22.9562 25.853 23.6875L25.6093 24.2031L25.5812 29.125C25.5624 31.8344 25.5718 42.0437 25.6093 42.2594C25.6937 42.8312 25.5812 51.4844 25.5812 51.4844C25.5812 51.4844 27.3249 51.0625 27.5312 50.8469L27.2218 41.5375L27.4843 41.7625L27.5499 29.6875C27.578 24.2406 27.5687 24.3625 28.0374 24.0531C28.2062 23.9406 30.3905 23.9219 41.9218 23.8937C49.4499 23.875 55.7874 23.8937 56.003 23.9219C56.2374 23.9594 56.4811 24.0719 56.6311 24.2219L56.8749 24.4656V42.25V60.0344L56.6311 60.2781C56.4811 60.4281 56.2374 60.5406 56.003 60.5781C55.7874 60.6063 49.4499 60.625 41.9218 60.6062C27.2312 60.5781 28.028 60.6063 27.7093 60.1188C27.5968 59.9594 27.5687 58.4031 27.5312 50.8469L27.4843 41.7625L27.2218 41.5375C26.6124 41.0125 25.7405 41.3969 25.6093 42.2594C25.5812 42.4844 25.5624 46.6375 25.5812 51.4844L25.6093 60.2969L25.853 60.8125C26.1999 61.5438 26.5187 61.8812 27.1749 62.2094L27.7468 62.5H42.2405H56.7343L57.2124 62.275C57.7749 62.0125 58.2905 61.525 58.5811 60.9719L58.7968 60.5781V42.25V23.9219L58.5811 23.5281C58.2905 22.975 57.7749 22.4875 57.2124 22.225L56.7343 22H42.2405H27.7468L27.1749 22.2906Z" fill="#C6A57C"/>
<path d="M60.9719 26.0125L60.7188 26.275L60.7 44.9688C60.6719 65.0688 60.7 63.8688 60.2125 64.1969C60.0438 64.3094 57.9438 64.3282 46.8438 64.3563L33.6813 64.375L33.4188 64.6282C33.2031 64.8344 33.1562 64.9563 33.1562 65.3219C33.1562 65.875 33.4563 66.2125 34.0281 66.2969C34.2438 66.325 40.2625 66.3438 47.4063 66.325L60.3906 66.2969L60.9063 66.0532C61.6375 65.7063 61.975 65.3875 62.3031 64.7313L62.5938 64.1594V45.2032V26.2563L62.3313 26.0032C61.9563 25.6375 61.3281 25.6469 60.9719 26.0125Z" fill="#C6A57C"/>
<path d="M31.1688 29.1719C31.0375 29.3031 30.9062 29.5375 30.8688 29.6969C30.7937 30.0812 30.7937 38.6687 30.8688 39.0531C30.9062 39.2125 31.0375 39.4469 31.1688 39.5781L31.4031 39.8125H36.3344H41.275L41.5281 39.55L41.7812 39.2875V34.375V29.4625L41.5281 29.2L41.275 28.9375H36.3344H31.4031L31.1688 29.1719ZM39.8125 34.375V37.9375H36.2969H32.7813V34.375V30.8125H36.2969H39.8125V34.375Z" fill="#C6A57C"/>
<path d="M45.4093 29.1719C45.1562 29.4344 45.0624 29.7437 45.1374 30.1094C45.1562 30.2312 45.2874 30.4469 45.4093 30.5781L45.653 30.8125H49.3562H53.0687L53.3312 30.5594C53.5468 30.3531 53.5937 30.2312 53.5937 29.875C53.5937 29.5187 53.5468 29.3969 53.3312 29.1906L53.0687 28.9375H49.3562H45.653L45.4093 29.1719Z" fill="#C6A57C"/>
<path d="M64.7219 29.7625L64.4688 30.025L64.45 48.7188C64.4219 68.8187 64.45 67.6187 63.9625 67.9469C63.7938 68.0594 61.4219 68.0781 48.7188 68.1062L33.6813 68.125L33.4188 68.3781C33.2031 68.5844 33.1562 68.7062 33.1562 69.0625C33.1562 69.4187 33.2031 69.5406 33.4188 69.7469L33.6813 70H48.9625H64.2531L64.825 69.7094C65.4813 69.3812 65.8 69.0437 66.1469 68.3125L66.3906 67.7969L66.4188 49.2812C66.4375 39.1 66.4188 30.5875 66.3906 30.3719C66.3063 29.8 65.9688 29.5 65.4156 29.5C65.05 29.5 64.9281 29.5469 64.7219 29.7625Z" fill="#C6A57C"/>
<path d="M45.4093 33.6719C45.1562 33.9344 45.0624 34.2437 45.1374 34.6094C45.1562 34.7312 45.2874 34.9469 45.4093 35.0781L45.653 35.3125H49.3562H53.0687L53.3312 35.0594C53.5468 34.8531 53.5937 34.7312 53.5937 34.375C53.5937 34.0187 53.5468 33.8969 53.3312 33.6906L53.0687 33.4375H49.3562H45.653L45.4093 33.6719Z" fill="#C6A57C"/>
<path d="M45.4093 38.1719C45.1562 38.4344 45.0624 38.7437 45.1374 39.1094C45.1562 39.2312 45.2874 39.4469 45.4093 39.5781L45.653 39.8125H49.3562H53.0687L53.3312 39.5594C53.5468 39.3531 53.5937 39.2312 53.5937 38.875C53.5937 38.5187 53.5468 38.3969 53.3312 38.1906L53.0687 37.9375H49.3562H45.653L45.4093 38.1719Z" fill="#C6A57C"/>
<path d="M36.8127 43.8156C36.7377 43.8437 36.0721 44.4625 35.3408 45.1844L34.0002 46.5156L33.3252 45.85C32.9502 45.475 32.5283 45.1562 32.3877 45.1187C32.0127 45.0344 31.5065 45.2781 31.3283 45.625C31.0283 46.2062 31.1783 46.4875 32.3877 47.6968C34.019 49.3187 33.9627 49.3281 36.1846 47.1344C37.1033 46.225 37.919 45.3719 37.994 45.2312C38.4252 44.4062 37.6846 43.5062 36.8127 43.8156Z" fill="#C6A57C"/>
<path d="M41.5655 45.5781C41.3124 45.8406 41.2187 46.15 41.2937 46.5156C41.3124 46.6375 41.4437 46.8531 41.5655 46.9844L41.8093 47.2188H47.6968H53.5843L53.8468 46.9937C54.0718 46.7969 54.1093 46.6937 54.1093 46.2812C54.1093 45.8687 54.0718 45.7656 53.8468 45.5687L53.5843 45.3437H47.6968H41.8093L41.5655 45.5781Z" fill="#C6A57C"/>
<path d="M36.8593 50.9782C36.7 51.025 36.0718 51.5688 35.2937 52.3469L34.0093 53.6313L33.3062 52.9563C32.6781 52.3375 32.5843 52.2813 32.2281 52.2813C32.0125 52.2813 31.7312 52.3469 31.6093 52.4313C31.2906 52.6375 31.1406 53.1344 31.2718 53.5282C31.4031 53.9313 33.3812 55.9 33.7468 55.9844C34.2625 56.1157 34.4875 55.9563 36.325 54.1188C38.0593 52.3844 38.125 52.3 38.125 51.9438C38.125 51.4938 37.9187 51.175 37.5062 51.0063C37.3375 50.9313 37.1781 50.875 37.1687 50.8844C37.15 50.8844 37.0187 50.9313 36.8593 50.9782Z" fill="#C6A57C"/>
<path d="M41.5655 52.7031C41.3124 52.9656 41.2187 53.275 41.2937 53.6406C41.3124 53.7625 41.4437 53.9781 41.5655 54.1094L41.8093 54.3438H47.6968H53.5843L53.8468 54.1187C54.0718 53.9219 54.1093 53.8187 54.1093 53.4062C54.1093 52.9937 54.0718 52.8906 53.8468 52.6937L53.5843 52.4687H47.6968H41.8093L41.5655 52.7031Z" fill="#C6A57C"/>
</svg>
