<svg width="28" height="28" viewBox="0 0 28 28" fill="none" xmlns="http://www.w3.org/2000/svg">
<path d="M6.26699 3.86465C5.45762 4.07793 4.85059 4.42246 4.1998 5.04043C3.55996 5.6584 3.11699 6.42402 2.90918 7.29902C2.80527 7.73652 2.7998 7.9498 2.7998 14.2334C2.7998 20.517 2.80527 20.7303 2.90918 21.1678C3.11699 22.0428 3.5709 22.8248 4.22715 23.4537C4.86152 24.0553 5.53965 24.4271 6.36543 24.624C6.80293 24.7279 7.01621 24.7334 13.2998 24.7334C19.5834 24.7334 19.7967 24.7279 20.2342 24.624C21.1092 24.4162 21.8912 23.9623 22.5201 23.3061C23.1217 22.6717 23.4936 21.9936 23.6904 21.1678C23.7943 20.7412 23.7998 20.5225 23.7998 17.3889C23.7998 14.4357 23.7889 14.042 23.7123 13.8889C23.4662 13.4076 22.9522 13.1451 22.4217 13.2271C22.1209 13.2764 21.7271 13.5607 21.5904 13.8232C21.4811 14.0365 21.4756 14.1404 21.4482 17.2959C21.4209 20.5389 21.4209 20.5498 21.2951 20.867C21.0545 21.4631 20.5295 21.9881 19.9279 22.2287L19.6162 22.3545H13.2998H6.9834L6.66621 22.2287C6.07012 21.9881 5.54512 21.4631 5.30449 20.8615L5.17871 20.5498V14.2334V7.91699L5.30449 7.59981C5.54512 7.00371 6.07012 6.47871 6.66621 6.24356L6.9834 6.1123L10.3576 6.08496L13.7264 6.05762L13.967 5.89355C14.7053 5.36856 14.6396 4.24746 13.8412 3.84277C13.6389 3.73887 13.5131 3.7334 10.199 3.7334C6.77559 3.73887 6.76465 3.73887 6.26699 3.86465Z" fill="#272727"/>
<path d="M23.3077 4.96933C23.182 5.01855 21.3937 6.77402 18.2109 9.95684L13.2999 14.8623L11.3202 12.8826C10.2265 11.7998 9.25306 10.8646 9.14915 10.8154C8.86477 10.6732 8.38352 10.6896 8.06634 10.8482C7.69446 11.0396 7.48665 11.3514 7.45931 11.7725C7.41556 12.385 7.3554 12.3139 10.1663 15.1193C12.6984 17.6404 12.7312 17.6678 13.0156 17.7279C13.2179 17.7717 13.382 17.7717 13.5898 17.7279L13.8741 17.6678L19.332 12.2209C22.3343 9.21855 24.8281 6.70293 24.8718 6.6209C25.1726 6.05215 24.8992 5.24824 24.3249 4.98574C24.0515 4.85996 23.5757 4.85449 23.3077 4.96933Z" fill="#C6A57C"/>
</svg>
