<svg width="28" height="28" viewBox="0 0 28 28" fill="none" xmlns="http://www.w3.org/2000/svg">
<path d="M6.26699 3.86465C5.45762 4.07793 4.85059 4.42246 4.1998 5.04043C3.55996 5.6584 3.11699 6.42402 2.90918 7.29902C2.80527 7.73652 2.7998 7.9498 2.7998 14.2334C2.7998 20.517 2.80527 20.7303 2.90918 21.1678C3.11699 22.0428 3.5709 22.8248 4.22715 23.4537C4.86152 24.0553 5.53965 24.4271 6.36543 24.624C6.80293 24.7279 7.01621 24.7334 13.2998 24.7334C19.5834 24.7334 19.7967 24.7279 20.2342 24.624C21.1092 24.4162 21.8912 23.9623 22.5201 23.3061C23.1217 22.6717 23.4936 21.9936 23.6904 21.1678C23.7943 20.7412 23.7998 20.5225 23.7998 17.3889C23.7998 14.4357 23.7889 14.042 23.7123 13.8889C23.4662 13.4076 22.9521 13.1451 22.4217 13.2271C22.1209 13.2764 21.7271 13.5607 21.5904 13.8232C21.4811 14.0365 21.4756 14.1404 21.4482 17.2959C21.4209 20.5389 21.4209 20.5498 21.2951 20.867C21.0545 21.4631 20.5295 21.9881 19.9279 22.2287L19.6162 22.3545H13.2998H6.9834L6.66621 22.2287C6.07012 21.9881 5.54512 21.4631 5.30449 20.8615L5.17871 20.5498V14.2334V7.91699L5.30449 7.5998C5.54512 7.00371 6.07012 6.47871 6.66621 6.24356L6.9834 6.11231L10.3576 6.08496L13.7264 6.05762L13.967 5.89356C14.7053 5.36856 14.6396 4.24746 13.8412 3.84277C13.6389 3.73887 13.5131 3.7334 10.199 3.7334C6.77559 3.73887 6.76465 3.73887 6.26699 3.86465Z" fill="#272727"/>
<path d="M23.6686 7.20059C23.4553 6.39121 23.1107 5.78418 22.4928 5.1334C21.8748 4.49356 21.1092 4.05059 20.2342 3.84277C19.7967 3.73887 19.5834 3.7334 13.2998 3.7334C7.01621 3.7334 6.80293 3.73887 6.36543 3.84277C5.49043 4.05059 4.7084 4.50449 4.07949 5.16074C3.47793 5.79512 3.10605 6.47324 2.90918 7.29902C2.80527 7.73652 2.7998 7.9498 2.7998 14.2334C2.7998 20.517 2.80527 20.7303 2.90918 21.1678C3.11699 22.0428 3.5709 22.8248 4.22715 23.4537C4.86152 24.0553 5.53965 24.4271 6.36543 24.624C6.79199 24.7279 7.01074 24.7334 10.1443 24.7334C13.0975 24.7334 13.4912 24.7225 13.6443 24.6459C14.1256 24.3998 14.3881 23.8857 14.3061 23.3553C14.2568 23.0545 13.9725 22.6607 13.71 22.524C13.4967 22.4146 13.3928 22.4092 10.2373 22.3818C6.99434 22.3545 6.9834 22.3545 6.66621 22.2287C6.07012 21.9881 5.54512 21.4631 5.30449 20.8615L5.17871 20.5498L5.17871 14.2334L5.17871 7.91699L5.30449 7.5998C5.54512 7.00371 6.07012 6.47871 6.67168 6.23809L6.9834 6.1123L13.2998 6.11231L19.6162 6.11231L19.9334 6.23809C20.5295 6.47871 21.0545 7.00371 21.2896 7.59981L21.4209 7.91699L21.4482 11.2912L21.4756 14.66L21.6396 14.9006C22.1646 15.6389 23.2857 15.5732 23.6904 14.7748C23.7943 14.5725 23.7998 14.4467 23.7998 11.1326C23.7943 7.70918 23.7943 7.69824 23.6686 7.20059Z" fill="#272727"/>
</svg>
