<svg width="121" height="52" viewBox="0 0 121 52" fill="none" xmlns="http://www.w3.org/2000/svg">
<path d="M25.7257 1.42185C25.2788 1.60466 1.86865 16.7883 1.60459 17.0726C1.26943 17.4281 1.24912 17.6515 1.53349 18.0172C1.73662 18.2711 1.76708 18.2812 2.95537 18.2812H4.16396V20.0586C4.16396 21.8156 4.16396 21.8461 4.41787 22.0898C4.6413 22.3234 4.74287 22.3437 5.53505 22.3437H6.39834V24.2531C6.39834 26.5281 6.38818 26.5078 7.39365 26.5078H8.02333V33.2617V40.0156H7.41396C6.40849 40.0156 6.39834 40.0461 6.39834 42.2906V44.1492L4.99677 44.2C3.68662 44.2406 3.55458 44.2609 3.11787 44.5148C2.81318 44.6976 2.54912 44.9617 2.3663 45.2765L2.08193 45.7539V48.0086C2.08193 50.0398 2.10224 50.2836 2.26474 50.4461C2.42724 50.6086 2.70146 50.6289 4.90537 50.6593C6.25615 50.6797 7.58662 50.639 7.58662 50.639C7.58662 50.639 7.99287 49.1562 5.6163 49.1562H3.55458V47.6836C3.55458 46.2414 3.56474 46.1906 3.80849 45.957L4.05224 45.7031H25.9999H47.9476L48.1913 45.957C48.4351 46.1906 48.4452 46.2414 48.4452 47.6836V49.1562H37.2226C26.1319 49.1562 5.81943 48.9531 5.6163 49.1562C7.58662 50.639 7.58662 50.639 7.58662 50.639L37.8421 50.6593C48.9327 50.6289 49.5624 50.6187 49.7351 50.4461C49.8976 50.2836 49.9179 50.0398 49.9179 48.0086V45.7539L49.6335 45.2765C49.4507 44.9617 49.1866 44.6976 48.8819 44.5148C48.4452 44.2609 48.3132 44.2406 47.003 44.2L45.6015 44.1492V42.2906C45.6015 40.0461 45.5913 40.0156 44.5858 40.0156H43.9765V33.2617V26.5078H44.6163C45.6015 26.5078 45.6015 26.5179 45.6015 24.2429V22.3437H46.4647C47.2569 22.3437 47.3585 22.3234 47.5819 22.0898C47.8358 21.8461 47.8358 21.8156 47.8358 20.0586V18.2812H49.0444C50.2327 18.2812 50.2632 18.2711 50.4663 18.0172C50.7507 17.6515 50.7304 17.4281 50.4054 17.0726C50.2429 16.9101 44.8093 13.3453 38.3093 9.15076C28.214 2.62029 26.1015 1.27966 25.9694 1.33044C25.9593 1.33044 25.8476 1.37107 25.7257 1.42185ZM36.7249 9.96326L47.3077 16.8086L36.6538 16.839C30.7936 16.8492 21.2061 16.8492 15.346 16.839L4.70224 16.8086L15.3257 9.93279C21.1655 6.1445 25.9897 3.06716 26.0405 3.07732C26.0913 3.09763 30.8952 6.19529 36.7249 9.96326ZM46.3124 19.5508V20.8203H25.9999H5.6874V19.5508V18.2812H25.9999H46.3124V19.5508ZM15.539 23.7148V25.0859H11.6796H7.82021V23.7148V22.3437H11.6796H15.539V23.7148ZM20.7186 24.2429C20.7186 26.5179 20.7186 26.5078 21.7038 26.5078H22.3436V33.2617V40.0156H21.7343C20.7288 40.0156 20.7186 40.0461 20.7186 42.3008V44.1797H18.8397H16.9608V42.3008C16.9608 40.0461 16.9507 40.0156 15.9452 40.0156H15.3358V33.2617V26.5078H15.9655C16.971 26.5078 16.9608 26.5281 16.9608 24.2531V22.3437H18.8397H20.7186V24.2429ZM29.8593 23.7148V25.0859H25.9999H22.1405V23.7148V22.3437H25.9999H29.8593V23.7148ZM35.039 24.2429C35.039 26.5179 35.039 26.5078 36.0241 26.5078H36.664V33.2617V40.0156H36.0749C35.039 40.0156 35.039 40.0054 35.039 42.2601V44.1797H33.1601H31.2811V42.3008C31.2811 40.0461 31.271 40.0156 30.2655 40.0156H29.6561V33.2617V26.5078H30.2858C31.2913 26.5078 31.2811 26.5281 31.2811 24.2531V22.3437H33.1601H35.039V24.2429ZM44.1796 23.7148V25.0859H40.3202H36.4608V23.7148V22.3437H40.3202H44.1796V23.7148ZM13.8124 33.2617V40.0156H11.6796H9.54677V33.2617V26.5078H11.6796H13.8124V33.2617ZM28.1327 33.2617V40.0156H25.9999H23.8671V33.2617V26.5078H25.9999H28.1327V33.2617ZM42.453 33.2617V40.0156H40.3202H38.1874V33.2617V26.5078H40.3202H42.453V33.2617ZM15.539 42.8593V44.1797H11.6796H7.82021V42.8593V41.539H11.6796H15.539V42.8593ZM29.8593 42.8593V44.1797H25.9999H22.1405V42.8593V41.539H25.9999H29.8593V42.8593ZM44.1796 42.8593V44.1797H40.3202H36.4608V42.8593V41.539H40.3202H44.1796V42.8593Z" fill="#FAFAFA"/>
<path d="M24.8118 7.49545C23.1564 8.08451 22.1814 9.75014 22.4556 11.5072C22.7908 13.6298 24.9439 14.9806 27.0158 14.3611C28.5493 13.904 29.565 12.5533 29.565 10.9689C29.565 10.6033 29.5345 10.1665 29.4939 9.99389C29.2704 9.06967 28.3665 8.00326 27.4423 7.59701C26.772 7.29233 25.5126 7.24155 24.8118 7.49545ZM26.7923 8.98842C28.3259 9.63842 28.5189 11.6697 27.1376 12.6447C26.7517 12.9087 26.6095 12.9494 26.0001 12.9494C25.3908 12.9494 25.2486 12.9087 24.8626 12.6447C24.2837 12.2283 23.9283 11.5783 23.9283 10.9181C23.9384 9.4353 25.4415 8.42983 26.7923 8.98842Z" fill="#FAFAFA"/>
<path d="M75.088 33.272C75.088 32.5253 74.8853 31.8747 74.48 31.32C74.0747 30.7653 73.552 30.3173 72.912 29.976C72.272 29.6133 71.5573 29.272 70.768 28.952C70 28.632 69.2213 28.2907 68.432 27.928C67.664 27.544 66.96 27.1173 66.32 26.648C65.68 26.1787 65.1573 25.56 64.752 24.792C64.3467 24.024 64.144 23.1387 64.144 22.136C64.144 20.472 64.752 19.0853 65.968 17.976C67.184 16.8453 68.8267 16.28 70.896 16.28C72.176 16.28 73.36 16.4933 74.448 16.92C75.5573 17.3467 76.432 17.912 77.072 18.616L75.6 20.664C74.384 19.448 72.8693 18.84 71.056 18.84C69.8187 18.84 68.8373 19.1387 68.112 19.736C67.3867 20.3333 67.024 21.1333 67.024 22.136C67.024 22.8827 67.2267 23.5333 67.632 24.088C68.0373 24.6427 68.56 25.0907 69.2 25.432C69.84 25.7733 70.544 26.104 71.312 26.424C72.1013 26.7227 72.88 27.0533 73.648 27.416C74.4373 27.7787 75.152 28.1947 75.792 28.664C76.432 29.112 76.9547 29.7307 77.36 30.52C77.7653 31.3093 77.968 32.216 77.968 33.24C77.968 35.0533 77.264 36.5253 75.856 37.656C74.4693 38.7653 72.7413 39.32 70.672 39.32C69.2213 39.32 67.8133 39.0213 66.448 38.424C65.0827 37.8053 64.1333 36.984 63.6 35.96L65.168 34.104C65.808 34.936 66.64 35.5867 67.664 36.056C68.688 36.5253 69.7013 36.76 70.704 36.76C71.9413 36.76 72.976 36.4507 73.808 35.832C74.6613 35.2133 75.088 34.36 75.088 33.272ZM82.9225 39V16.6H95.5625V19.16H85.6425V27.096H94.6025V29.656H85.6425V39H82.9225ZM109.767 30.168V27.608H118.375V36.216C117.415 37.176 116.146 37.9333 114.567 38.488C112.989 39.0427 111.463 39.32 109.991 39.32C106.514 39.32 103.751 38.2747 101.703 36.184C99.6553 34.0933 98.6313 31.2987 98.6313 27.8C98.6313 24.5147 99.6446 21.7733 101.671 19.576C103.698 17.3787 106.354 16.28 109.639 16.28C112.498 16.28 114.845 17.0053 116.679 18.456L115.495 20.632C114.173 19.4373 112.327 18.84 109.959 18.84C107.442 18.84 105.405 19.6613 103.847 21.304C102.29 22.9467 101.511 25.112 101.511 27.8C101.511 30.5093 102.29 32.6853 103.847 34.328C105.426 35.9493 107.495 36.76 110.055 36.76C111.122 36.76 112.199 36.5787 113.287 36.216C114.375 35.832 115.218 35.352 115.815 34.776V30.168H109.767Z" fill="#FAFAFA"/>
</svg>
