<svg width="52" height="52" viewBox="0 0 52 52" fill="#FAFAFA" xmlns="http://www.w3.org/2000/svg">
<path d="M25.7257 1.42185C25.2788 1.60466 1.86865 16.7883 1.60459 17.0726C1.26943 17.4281 1.24912 17.6515 1.53349 18.0172C1.73662 18.2711 1.76708 18.2812 2.95537 18.2812H4.16396V20.0586C4.16396 21.8156 4.16396 21.8461 4.41787 22.0898C4.6413 22.3234 4.74287 22.3437 5.53505 22.3437H6.39834V24.2531C6.39834 26.5281 6.38818 26.5078 7.39365 26.5078H8.02333V33.2617V40.0156H7.41396C6.40849 40.0156 6.39834 40.0461 6.39834 42.2906V44.1492L4.99677 44.2C3.68662 44.2406 3.55458 44.2609 3.11787 44.5148C2.81318 44.6976 2.54912 44.9617 2.3663 45.2765L2.08193 45.7539V48.0086C2.08193 50.0398 2.10224 50.2836 2.26474 50.4461C2.42724 50.6086 2.70146 50.6289 4.90537 50.6593C6.25615 50.6797 7.58662 50.639 7.58662 50.639C7.58662 50.639 7.99287 49.1562 5.6163 49.1562H3.55458V47.6836C3.55458 46.2414 3.56474 46.1906 3.80849 45.957L4.05224 45.7031H25.9999H47.9476L48.1913 45.957C48.4351 46.1906 48.4452 46.2414 48.4452 47.6836V49.1562H37.2226C26.1319 49.1562 5.81943 48.9531 5.6163 49.1562C7.58662 50.639 7.58662 50.639 7.58662 50.639L37.8421 50.6593C48.9327 50.6289 49.5624 50.6187 49.7351 50.4461C49.8976 50.2836 49.9179 50.0398 49.9179 48.0086V45.7539L49.6335 45.2765C49.4507 44.9617 49.1866 44.6976 48.8819 44.5148C48.4452 44.2609 48.3132 44.2406 47.003 44.2L45.6015 44.1492V42.2906C45.6015 40.0461 45.5913 40.0156 44.5858 40.0156H43.9765V33.2617V26.5078H44.6163C45.6015 26.5078 45.6015 26.5179 45.6015 24.2429V22.3437H46.4647C47.2569 22.3437 47.3585 22.3234 47.5819 22.0898C47.8358 21.8461 47.8358 21.8156 47.8358 20.0586V18.2812H49.0444C50.2327 18.2812 50.2632 18.2711 50.4663 18.0172C50.7507 17.6515 50.7304 17.4281 50.4054 17.0726C50.2429 16.9101 44.8093 13.3453 38.3093 9.15076C28.214 2.62029 26.1015 1.27966 25.9694 1.33044C25.9593 1.33044 25.8476 1.37107 25.7257 1.42185ZM36.7249 9.96326L47.3077 16.8086L36.6538 16.839C30.7936 16.8492 21.2061 16.8492 15.346 16.839L4.70224 16.8086L15.3257 9.93279C21.1655 6.14451 25.9897 3.06716 26.0405 3.07732C26.0913 3.09763 30.8952 6.19529 36.7249 9.96326ZM46.3124 19.5508V20.8203H25.9999H5.6874V19.5508V18.2812H25.9999H46.3124V19.5508ZM15.539 23.7148V25.0859H11.6796H7.82021V23.7148V22.3437H11.6796H15.539V23.7148ZM20.7186 24.2429C20.7186 26.5179 20.7186 26.5078 21.7038 26.5078H22.3436V33.2617V40.0156H21.7343C20.7288 40.0156 20.7186 40.0461 20.7186 42.3008V44.1797H18.8397H16.9608V42.3008C16.9608 40.0461 16.9507 40.0156 15.9452 40.0156H15.3358V33.2617V26.5078H15.9655C16.971 26.5078 16.9608 26.5281 16.9608 24.2531V22.3437H18.8397H20.7186V24.2429ZM29.8593 23.7148V25.0859H25.9999H22.1405V23.7148V22.3437H25.9999H29.8593V23.7148ZM35.039 24.2429C35.039 26.5179 35.039 26.5078 36.0241 26.5078H36.664V33.2617V40.0156H36.0749C35.039 40.0156 35.039 40.0054 35.039 42.2601V44.1797H33.1601H31.2811V42.3008C31.2811 40.0461 31.271 40.0156 30.2655 40.0156H29.6561V33.2617V26.5078H30.2858C31.2913 26.5078 31.2811 26.5281 31.2811 24.2531V22.3437H33.1601H35.039V24.2429ZM44.1796 23.7148V25.0859H40.3202H36.4608V23.7148V22.3437H40.3202H44.1796V23.7148ZM13.8124 33.2617V40.0156H11.6796H9.54677V33.2617V26.5078H11.6796H13.8124V33.2617ZM28.1327 33.2617V40.0156H25.9999H23.8671V33.2617V26.5078H25.9999H28.1327V33.2617ZM42.453 33.2617V40.0156H40.3202H38.1874V33.2617V26.5078H40.3202H42.453V33.2617ZM15.539 42.8593V44.1797H11.6796H7.82021V42.8593V41.539H11.6796H15.539V42.8593ZM29.8593 42.8593V44.1797H25.9999H22.1405V42.8593V41.539H25.9999H29.8593V42.8593ZM44.1796 42.8593V44.1797H40.3202H36.4608V42.8593V41.539H40.3202H44.1796V42.8593Z" fill="#FAFAFA"/>
<path d="M24.8118 7.49545C23.1564 8.08451 22.1814 9.75014 22.4556 11.5072C22.7908 13.6298 24.9439 14.9806 27.0158 14.3611C28.5493 13.904 29.565 12.5533 29.565 10.9689C29.565 10.6033 29.5345 10.1665 29.4939 9.99389C29.2704 9.06967 28.3665 8.00326 27.4423 7.59701C26.772 7.29233 25.5126 7.24155 24.8118 7.49545ZM26.7923 8.98842C28.3259 9.63842 28.5189 11.6697 27.1376 12.6447C26.7517 12.9087 26.6095 12.9494 26.0001 12.9494C25.3908 12.9494 25.2486 12.9087 24.8626 12.6447C24.2837 12.2283 23.9283 11.5783 23.9283 10.9181C23.9384 9.4353 25.4415 8.42983 26.7923 8.98842Z" fill="#FAFAFA"/>
</svg>
