<svg width="52" height="52" viewBox="0 0 52 52" fill="none" xmlns="http://www.w3.org/2000/svg">
<circle cx="26" cy="26" r="26" fill="#C6A57C"/>
<g clip-path="url(#clip0_33_2796)">
<path fill-rule="evenodd" clip-rule="evenodd" d="M20.038 18.6981C20.2086 18.5278 20.4135 18.3956 20.639 18.3104C20.8646 18.2252 21.1056 18.189 21.3462 18.204C21.5869 18.219 21.8215 18.285 22.0347 18.3976C22.2479 18.5102 22.4347 18.6668 22.5828 18.857L24.3329 21.1054C24.6537 21.5178 24.7668 22.055 24.64 22.562L24.1067 24.6973C24.0791 24.8079 24.0806 24.9237 24.111 25.0336C24.1415 25.1434 24.1997 25.2435 24.2803 25.3242L26.6758 27.7198C26.7566 27.8005 26.8569 27.8589 26.9669 27.8893C27.077 27.9197 27.193 27.9211 27.3037 27.8933L29.438 27.36C29.6882 27.2974 29.9494 27.2926 30.2017 27.3458C30.4541 27.399 30.691 27.5089 30.8947 27.6671L33.143 29.4163C33.9513 30.0451 34.0254 31.2395 33.3019 31.962L32.2938 32.9701C31.5723 33.6916 30.4939 34.0085 29.4887 33.6546C26.9159 32.7493 24.5799 31.2764 22.654 29.3451C20.7228 27.4195 19.2499 25.0838 18.3445 22.5113C17.9915 21.5071 18.3084 20.4277 19.0299 19.7062L20.038 18.6981Z" fill="#FAFAFA"/>
</g>
<defs>
<clipPath id="clip0_33_2796">
<rect width="15.6" height="15.6" fill="white" transform="translate(18.2002 18.2)"/>
</clipPath>
</defs>
</svg>
