<svg width="24" height="24" viewBox="0 0 24 24" fill="none" xmlns="http://www.w3.org/2000/svg">
<path fill-rule="evenodd" clip-rule="evenodd" d="M11.6334 23.338L11.9999 22.8181L11.6334 23.338ZM12.3665 23.338L12.369 23.3368L12.3754 23.3323L12.3945 23.3177L12.4696 23.2636C12.5332 23.2165 12.6261 23.1478 12.7432 23.0574C12.9774 22.878 13.3095 22.6139 13.706 22.2747C14.7467 21.3851 15.7199 20.4194 16.6174 19.3856C18.7225 16.9509 20.909 13.4757 20.909 9.50286C20.909 7.12923 19.971 4.85105 18.3012 3.17105C17.4758 2.33957 16.4942 1.67953 15.4128 1.22891C14.3313 0.778298 13.1715 0.546007 11.9999 0.54541C10.8284 0.545924 9.66855 0.778114 8.58712 1.22862C7.5057 1.67912 6.52403 2.33905 5.69864 3.17041C4.02718 4.85425 3.0897 7.13093 3.09082 9.5035C3.09082 13.4757 5.27737 16.9509 7.38246 19.3856C8.27997 20.4194 9.25311 21.3851 10.2938 22.2747C10.6909 22.6139 11.0225 22.878 11.2566 23.0574C11.3715 23.1459 11.4875 23.2329 11.6047 23.3183L11.6251 23.3323L11.6308 23.3368L11.6334 23.338C11.8529 23.4927 12.1469 23.4927 12.3665 23.338ZM11.9999 22.8181L12.3665 23.338L11.9999 22.8181ZM15.1817 9.4545C15.1817 10.2984 14.8465 11.1077 14.2498 11.7044C13.6531 12.3011 12.8438 12.6363 11.9999 12.6363C11.156 12.6363 10.3467 12.3011 9.75003 11.7044C9.15332 11.1077 8.81809 10.2984 8.81809 9.4545C8.81809 8.61063 9.15332 7.80132 9.75003 7.20462C10.3467 6.60791 11.156 6.27268 11.9999 6.27268C12.8438 6.27268 13.6531 6.60791 14.2498 7.20462C14.8465 7.80132 15.1817 8.61063 15.1817 9.4545Z" fill="#C6A57C"/>
</svg>
