<svg width="12" height="8" viewBox="0 0 12 8" fill="none" xmlns="http://www.w3.org/2000/svg">
<g clip-path="url(#clip0_103_669)">
<path d="M11.9999 6.5005C12.0003 6.73415 11.9306 6.96059 11.8028 7.1405C11.7308 7.24176 11.6425 7.32546 11.5427 7.38681C11.443 7.44816 11.3339 7.48596 11.2216 7.49803C11.1094 7.51011 10.9962 7.49623 10.8885 7.45718C10.7808 7.41814 10.6808 7.3547 10.5942 7.2705L5.99993 2.7905L1.39707 7.1105C1.3094 7.19356 1.20851 7.2556 1.10022 7.29303C0.991933 7.33046 0.878369 7.34255 0.766059 7.32861C0.653749 7.31467 0.544907 7.27498 0.44579 7.2118C0.346673 7.14863 0.259234 7.06322 0.188501 6.9605C0.110469 6.85703 0.0516116 6.73587 0.015621 6.6046C-0.0203696 6.47334 -0.0327157 6.33482 -0.0206429 6.19772C-0.00857014 6.06063 0.0276611 5.92793 0.0857769 5.80795C0.143893 5.68796 0.222638 5.58329 0.317072 5.5005L5.45993 0.670497C5.6133 0.523415 5.80568 0.44301 6.00422 0.44301C6.20275 0.44301 6.39513 0.523415 6.5485 0.670497L11.6914 5.6705C11.7951 5.77081 11.8771 5.89825 11.9307 6.04246C11.9843 6.18667 12.008 6.34359 11.9999 6.5005Z" fill="#C6A57C"/>
</g>
<defs>
<clipPath id="clip0_103_669">
<rect width="7" height="12" fill="white" transform="translate(0 7.5) rotate(-90)"/>
</clipPath>
</defs>
</svg>
