<svg width="30" height="22" viewBox="0 0 30 22" fill="none" xmlns="http://www.w3.org/2000/svg">
<g clip-path="url(#clip0_42_148)">
<path d="M29.7511 10.3917C29.7508 10.3914 29.7506 10.3911 29.7503 10.3909L25.3162 5.92212C24.984 5.58735 24.4467 5.5886 24.1161 5.92504C23.7855 6.26145 23.7867 6.80556 24.1189 7.14037L27.096 10.1406H9.12448C8.6558 10.1406 8.27588 10.5254 8.27588 11C8.27588 11.4746 8.6558 11.8594 9.12448 11.8594H27.0959L24.119 14.8596C23.7868 15.1944 23.7855 15.7385 24.1161 16.0749C24.4468 16.4114 24.9841 16.4126 25.3162 16.0779L29.7503 11.6091C29.7506 11.6089 29.7508 11.6086 29.7511 11.6083C30.0834 11.2724 30.0824 10.7265 29.7511 10.3917Z" fill="#C6A57C"/>
</g>
<g clip-path="url(#clip1_42_148)">
<path d="M21.4752 10.3916C21.4749 10.3913 21.4747 10.391 21.4744 10.3907L17.0403 5.922C16.7081 5.58723 16.1709 5.58848 15.8402 5.92492C15.5096 6.26132 15.5109 6.80544 15.843 7.14025L18.8201 10.1405H0.848596C0.379917 10.1405 0 10.5252 0 10.9999C0 11.4745 0.379917 11.8592 0.848596 11.8592H18.82L15.8431 14.8595C15.5109 15.1943 15.5096 15.7384 15.8402 16.0748C16.1709 16.4113 16.7082 16.4125 17.0404 16.0777L21.4745 11.609C21.4747 11.6087 21.4749 11.6084 21.4752 11.6082C21.8076 11.2723 21.8065 10.7264 21.4752 10.3916Z" fill="#C6A57C"/>
</g>
<defs>
<clipPath id="clip0_42_148">
<rect x="8.27588" width="21.7241" height="22" rx="5" fill="white"/>
</clipPath>
<clipPath id="clip1_42_148">
<rect width="15.5172" height="3.14286" fill="white" transform="translate(0 9.42847)"/>
</clipPath>
</defs>
</svg>
