<svg width="48" height="48" viewBox="0 0 48 48" fill="none" xmlns="http://www.w3.org/2000/svg">
<g clip-path="url(#clip0_81_157)">
<path d="M4.69688 0.140602C3.02813 0.506227 1.43438 1.7531 0.675009 3.2906C-0.0468661 4.74373 8.95211e-06 3.24373 8.95211e-06 24C8.95211e-06 44.7562 -0.0468661 43.2562 0.675009 44.7094C1.44376 46.2656 3.02813 47.4937 4.74376 47.8594C5.71876 48.0656 42.2813 48.0656 43.2563 47.8594C45.4969 47.3906 47.3906 45.4969 47.8594 43.2562C48.0656 42.2812 48.0656 5.71873 47.8594 4.74373C47.3906 2.5031 45.4969 0.609352 43.2563 0.140602C42.3094 -0.0562729 5.62501 -0.0562729 4.69688 0.140602Z" fill="#FAFAFA" fill-opacity="0.3"/>
<path d="M16.9687 16.3313C16.3874 16.6219 16.0781 17.2407 16.1718 17.8876C16.2374 18.3188 16.3124 18.4032 19.0593 21.1594L21.8812 24.0001L19.0593 26.8313C16.3124 29.5969 16.2374 29.6813 16.1718 30.1126C16.0218 31.1157 16.8843 31.9782 17.8874 31.8282C18.3187 31.7626 18.4031 31.6876 21.1687 28.9407L23.9999 26.1188L26.7937 28.8938C28.9499 31.0407 29.6624 31.6876 29.9343 31.7813C30.9749 32.1094 31.9874 31.2094 31.8281 30.1032C31.7624 29.6907 31.6687 29.5688 28.9406 26.8313L26.1187 24.0001L28.9406 21.1594C31.6874 18.4032 31.7624 18.3188 31.8281 17.8876C31.9312 17.2313 31.6124 16.6219 31.0031 16.3219C30.6374 16.1438 30.4781 16.1157 30.1124 16.1719C29.6812 16.2376 29.5968 16.3126 26.8406 19.0594L23.9999 21.8813L21.1687 19.0688C18.2812 16.2001 18.1874 16.1251 17.5406 16.1251C17.4562 16.1251 17.1937 16.2188 16.9687 16.3313Z" fill="#C6A57C"/>
</g>
<defs>
<clipPath id="clip0_81_157">
<rect width="48" height="48" fill="white"/>
</clipPath>
</defs>
</svg>
