<svg width="85" height="18" viewBox="0 0 85 18" fill="none" xmlns="http://www.w3.org/2000/svg">
<g clip-path="url(#clip0_59_575)">
<path d="M12.5234 0V17.85H17.7651V3.96667L12.5234 0Z" fill="#EB0029"/>
<path d="M10.4265 1.57245V17.8499H11.5032V0.764954L10.4265 1.57245Z" fill="#EB0029"/>
<path d="M8.34424 3.15919V17.85H9.42091V2.33752L8.34424 3.15919Z" fill="#EB0029"/>
<path d="M6.26147 4.73163V17.85H7.33814V3.92413L6.26147 4.73163Z" fill="#EB0029"/>
<path d="M18.7708 17.85H24.0266V11.9708L18.7708 7.98999V17.85Z" fill="#EB0029"/>
<path d="M4.1792 9.56251V17.85H5.2417V8.74084L4.1792 9.56251Z" fill="#EB0029"/>
<path d="M2.08228 11.135V17.8499H3.15894V10.3275L2.08228 11.135Z" fill="#EB0029"/>
<path d="M0 12.7217V17.85H1.07667V11.9L0 12.7217Z" fill="#EB0029"/>
<path d="M37.57 9.94501C35.9975 9.94501 35.0342 9.06668 35.0342 7.33835V3.96668H36.3233V7.29585C36.3233 8.25918 36.805 8.74085 37.5842 8.74085C38.3775 8.74085 38.845 8.25918 38.845 7.32418V3.95251H40.1342V7.26751C40.1483 9.06668 39.1425 9.94501 37.57 9.94501Z" fill="#FAFAFA"/>
<path d="M44.0297 9.93089C43.1372 9.93089 42.2447 9.61922 41.5364 8.99589L42.3014 8.07506C42.8255 8.51422 43.378 8.78339 44.058 8.78339C44.5822 8.78339 44.908 8.57089 44.908 8.23089V8.21672C44.908 7.89089 44.7097 7.72089 43.718 7.46589C42.528 7.16839 41.7772 6.81422 41.7772 5.65256V5.63839C41.7772 4.57589 42.6272 3.86755 43.8314 3.86755C44.6814 3.86755 45.418 4.13672 46.013 4.61839L45.3472 5.59589C44.823 5.24172 44.313 5.01505 43.8172 5.01505C43.3214 5.01505 43.0664 5.24172 43.0664 5.52505C43.0664 5.90756 43.3214 6.06339 44.3272 6.31839C45.5172 6.63006 46.1972 7.05506 46.1972 8.07506V8.08922C46.183 9.27922 45.3047 9.93089 44.0297 9.93089Z" fill="#FAFAFA"/>
<path d="M51.6233 9.84584V7.48001H49.2291V9.84584H47.9399V3.96667H49.2291V6.29001H51.6233V3.96667H52.9124V9.84584H51.6233Z" fill="#FAFAFA"/>
<path d="M74.0348 9.84584L71.2723 6.16251V9.84584H69.9973V3.96667H71.1873L73.9357 7.69251V3.96667H75.2107V9.84584H74.0348Z" fill="#FAFAFA"/>
<path d="M48.7615 17.85L46.9482 15.3425L46.2682 16.0508V17.85H44.9648V11.9708H46.2682V14.535L48.6482 11.9708H50.2065L47.8124 14.4642L50.3199 17.85H48.7615Z" fill="#FAFAFA"/>
<path d="M51.7649 17.85V11.9708H56.1566V13.1183H53.0541V14.3083H55.7741V15.4558H53.0541V16.7025H56.1991V17.85H51.7649Z" fill="#FAFAFA"/>
<path d="M65.5489 11.9708H64.2598V17.85H65.5489V11.9708Z" fill="#FAFAFA"/>
<path d="M67.4473 17.8358V11.9567H71.8389V13.1183H68.7364V14.3083H71.4706V15.4558H68.7364V16.6883H71.8814V17.8358H67.4473Z" fill="#FAFAFA"/>
<path d="M73.8223 17.85V11.9708H75.1114V16.6742H78.0439V17.85H73.8223Z" fill="#FAFAFA"/>
<path d="M81.8834 17.85H79.5884V11.9708H81.8834C83.7251 11.9708 85.0001 13.2317 85.0001 14.8892V14.9033C85.0001 16.5608 83.7251 17.85 81.8834 17.85ZM83.6542 14.9033C83.6542 13.8692 82.9459 13.1325 81.8834 13.1325H80.8776V16.6742H81.8834C82.9459 16.6742 83.6542 15.9658 83.6542 14.9175V14.9033Z" fill="#FAFAFA"/>
<path d="M31.1806 8.74084C30.104 8.75501 29.3815 7.93334 29.3673 6.92751V6.91334C29.3531 5.90751 30.0615 5.07168 31.0956 5.05751C31.6765 5.04334 32.2006 5.29834 32.5406 5.70917L33.3623 4.73168C32.7956 4.17918 32.0023 3.85334 31.0956 3.86751C29.2823 3.89584 27.9931 5.28418 28.0215 6.95584V6.97001C28.0498 8.64167 29.3815 9.97334 31.1806 9.93084C32.1298 9.91667 32.9373 9.47751 33.4898 8.85417L32.6256 8.00417C32.2998 8.44334 31.7898 8.72667 31.1806 8.74084Z" fill="#FAFAFA"/>
<path d="M59.4857 3.96667H60.8599V9.84584H59.6274V5.99251L57.9699 8.51417H57.9274L56.2557 5.99251V9.84584H55.0374V3.96667H56.4115L57.9415 6.43167L59.4857 3.96667Z" fill="#FAFAFA"/>
<path d="M64.8124 3.96668L62.3191 9.83168H63.6366L64.1749 8.51418H66.6541L67.1924 9.83168H68.5383L66.0449 3.95251H64.8124V3.96668ZM64.6283 7.38085L65.4074 5.48251L66.1866 7.38085H64.6283Z" fill="#FAFAFA"/>
<path d="M39.7941 11.9708L37.3008 17.85H38.6183L39.1566 16.5325H41.6358L42.1741 17.85H43.52L41.0266 11.9708H39.7941ZM39.61 15.385L40.3891 13.4867L41.1683 15.385H39.61Z" fill="#FAFAFA"/>
<path d="M59.3158 13.1467V14.3933H62.0783V15.5692H59.3158V17.85H58.0125V11.9708H62.4891V13.1467H59.3158Z" fill="#FAFAFA"/>
<path d="M35.9124 11.9708L34.5524 16.065L33.1782 11.9708H31.9316L30.5716 16.065L29.2116 11.9708H27.8374L29.9482 17.85H31.2374L32.5549 13.8125L33.8866 17.85H35.1757L37.2866 11.9708H35.9124Z" fill="#FAFAFA"/>
<path d="M83.456 8.38672L84.136 7.63589L83.3143 6.75756L82.7193 7.46589L81.9827 6.60172C82.4643 6.31839 82.776 5.79422 82.7477 5.25589C82.7193 4.46255 82.0677 3.86755 81.2318 3.86755C80.8352 3.86755 80.4668 4.02339 80.1976 4.30672C79.9285 4.59005 79.7868 4.95839 79.801 5.35505C79.8151 5.79422 80.1127 6.17672 80.3252 6.43172C79.631 6.71506 79.121 7.45172 79.1493 8.16006C79.1777 9.16589 80.056 9.98756 81.0902 9.98756C81.671 9.98756 82.3085 9.67589 82.7052 9.23672L83.2293 9.87422H84.7452L83.456 8.38672ZM82.011 8.33006C81.7418 8.68422 81.4018 8.88256 81.1043 8.88256C80.6793 8.88256 80.311 8.52839 80.2968 8.10339C80.2827 7.84839 80.481 7.45172 81.076 7.18256L82.011 8.33006ZM81.2885 5.89339C81.1327 5.75172 80.9485 5.55339 80.9202 5.34089C80.8918 5.12839 81.0193 4.88755 81.3027 4.87339C81.6002 4.85922 81.756 5.07172 81.756 5.31255C81.7418 5.58172 81.4727 5.79422 81.2885 5.89339Z" fill="#FAFAFA"/>
</g>
<defs>
<clipPath id="clip0_59_575">
<rect width="85" height="17.85" fill="white"/>
</clipPath>
</defs>
</svg>
