<svg width="85" height="14" viewBox="0 0 85 14" fill="none" xmlns="http://www.w3.org/2000/svg">
<g clip-path="url(#clip0_59_609)">
<path d="M9.43115 10.4426H4.03216L2.88402 13.6H0L5.00261 0.232362H8.46073L13.4633 13.6H10.5656L9.43115 10.4426ZM8.47439 7.84561L6.7248 2.99337L4.96161 7.84561H8.47439ZM27.3093 0.232362V13.6H24.1519L18.3565 4.23719L18.6025 7.99601V13.5863H15.8689V0.232362H18.9989L24.8216 9.5952L24.5756 5.83638V0.232362H27.3093ZM40.5541 2.82934H36.6997V13.6H33.966V2.82934H30.1252V0.232362H40.5541V2.82934ZM57.3931 2.82934H53.5386V13.6H50.805V2.82934H46.9641V0.232362H57.3931V2.82934ZM62.8195 2.82934V5.52201H68.5468V8.11897H62.8195V11.003H69.0659V13.6H60.0859V0.232362H69.0659V2.82934H62.8195ZM84.7439 6.79314V13.5863H77.8821C74.014 13.5863 71.0481 10.6613 71.0481 6.79314C71.0481 2.92503 74.014 0 77.8821 0C81.7638 0 84.7439 2.92503 84.7439 6.79314ZM73.7953 6.86148C73.7953 9.32184 75.586 11.1124 77.9779 11.1124C80.3698 11.1124 82.1604 9.32184 82.1604 6.86148C82.1604 4.4012 80.3698 2.59698 77.9779 2.59698C75.586 2.59698 73.7953 4.38754 73.7953 6.86148Z" fill="#FAFAFA"/>
</g>
<defs>
<clipPath id="clip0_59_609">
<rect width="85" height="13.6" fill="white"/>
</clipPath>
</defs>
</svg>
