<svg width="78" height="24" viewBox="0 0 78 24" fill="none" xmlns="http://www.w3.org/2000/svg">
<path d="M28.77 0C30.5253 0.067437 32.1856 0.814467 33.4003 2.08331C34.6151 3.35215 35.2891 5.04346 35.28 6.8C35.2858 8.23653 34.8345 9.63768 33.9914 10.8008C33.1483 11.9639 31.9571 12.8287 30.59 13.27L38.27 23.52H24.16L17.32 13.6H13.44V23.52H0V0H28.77ZM18.19 10.68C19.1919 10.6213 20.1334 10.1814 20.8214 9.45067C21.5094 8.71992 21.8917 7.75365 21.89 6.75C21.8879 5.71095 21.4744 4.715 20.74 3.98C20.062 3.29373 19.1532 2.88388 18.19 2.83H13.44V10.68H18.22H18.19Z" fill="#77BC1F"/>
<path d="M53.5 2.68H42.27V0H77.53V2.68H66.86V23.52H53.5V2.68Z" fill="#77BC1F"/>
</svg>
