<svg width="62" height="62" viewBox="0 0 62 62" fill="none" xmlns="http://www.w3.org/2000/svg">
<path d="M18.4466 0.964512C17.7443 1.29147 16.9935 2.10279 16.8239 2.72037C16.7513 2.99889 16.7029 6.91021 16.7029 13.1102V23.0762L5.08996 23.1368L10.6239 24.8563C10.6239 24.8563 16.1822 24.9774 22.7212 25.0137L34.6247 25.0743L34.9517 25.4133L35.2908 25.7403L35.3271 42.2817C35.3513 60.2278 35.3876 59.2954 34.7095 59.6708C34.3704 59.8645 3.5884 59.9493 2.87394 59.7555C2.63176 59.695 2.31691 59.5012 2.18371 59.3196C1.92941 59.0047 1.92941 58.9684 1.92941 42.4028C1.92941 26.8544 1.95363 25.7887 2.14738 25.5465C2.53488 25.0622 2.95732 24.8563 5.3913 24.8563C7.5831 24.8563 10.6239 24.8563 10.6239 24.8563L5.08996 23.1368H2.47433L1.75988 23.4879C1.03332 23.8512 0.439959 24.5051 0.149334 25.2922C0.0524589 25.5829 0.00402144 29.9059 0.00402144 42.3544C-0.00808794 58.7262 -0.00808796 59.0411 0.2341 59.6829C0.512615 60.4337 1.15441 61.0997 1.92941 61.4508C2.47433 61.693 2.64387 61.7051 17.5505 61.6809C25.8454 61.6809 36.6954 61.6446 41.6845 61.5962L50.7302 61.5235L56.3611 55.8926L61.9919 50.2618V26.7575C61.9919 0.916073 62.0404 2.68404 61.2654 1.73951C61.0595 1.49733 60.6236 1.15826 60.2724 0.988731L59.6427 0.673885H31.8759L45.0146 2.39342C45.0146 2.39342 50.4396 2.49029 53.4669 2.49029C59.3279 2.49029 59.6185 2.51451 59.9212 3.07154C60.0181 3.25319 60.0544 10.0344 60.0544 26.152V48.9903H54.9806H49.8947L49.6525 49.3051C49.4103 49.62 49.3982 49.7532 49.3982 54.6333V59.6465H43.2103C37.3615 59.6465 37.0224 59.6344 37.1193 59.4286C37.1798 59.3196 37.2404 54.6938 37.2646 49.1477L37.3009 39.0727L40.9943 39.0364L44.6997 39.0001L44.9904 38.661C45.3658 38.2251 45.3658 37.8012 44.9783 37.4258L44.6876 37.1231H40.9822H37.2888V35.1856V33.2602L40.9943 33.2239L44.6997 33.1876L44.9904 32.8485C45.3658 32.4126 45.3536 32.0251 44.9661 31.6254L44.6392 31.3106H40.9701H37.2888V29.3731V27.4356H40.7884C42.9439 27.4356 44.4212 27.3872 44.6513 27.3024C45.39 27.0481 45.4384 25.9583 44.724 25.6313C44.5181 25.5465 43.2345 25.4981 40.8005 25.4981H37.1677L36.9982 25.0864C36.7439 24.4809 35.9689 23.6817 35.3513 23.3911C34.8185 23.1368 34.6368 23.1368 26.6568 23.1004L18.5193 23.0641L18.5435 13.1465L18.5798 3.21685L18.9189 2.8899L19.2458 2.55084L32.1181 2.49029C39.19 2.45396 45.0146 2.39342 45.0146 2.39342L31.8759 0.673885H19.0642L18.4466 0.964512ZM58.7224 50.843C58.7224 50.8551 57.0634 52.5262 55.029 54.5606L51.3357 58.254V54.5243V50.8067H55.029C57.0634 50.8067 58.7224 50.8188 58.7224 50.843Z" fill="#C6A57C"/>
<path d="M24.1017 7.04342C23.7626 7.46725 23.7868 7.87897 24.1501 8.24225L24.4407 8.54498H38.1849C45.7411 8.54498 52.0138 8.50865 52.1228 8.47233C52.6677 8.25436 52.704 7.12819 52.1833 6.84967C52.038 6.77701 46.9278 6.72858 38.1486 6.72858H24.3439L24.1017 7.04342Z" fill="#C6A57C"/>
<path d="M21.6072 13.9821C20.9412 14.2606 20.808 15.0598 21.3529 15.5321L21.6799 15.8106H33.0627C41.4908 15.8106 44.5181 15.7743 44.7119 15.6653C45.3416 15.3383 45.4384 14.8055 44.9904 14.2727L44.6998 13.9337L33.2685 13.9094C26.9959 13.8973 21.7404 13.9337 21.6072 13.9821Z" fill="#C6A57C"/>
<path d="M48.6716 14.0305C48.502 14.1153 48.2962 14.3333 48.2114 14.527C48.0056 14.9508 48.1872 15.4715 48.6231 15.6774C48.829 15.7622 50.2216 15.8106 52.9825 15.8106H57.0391L57.3298 15.5079C57.8505 14.9993 57.6809 14.2364 57.0149 14.0063C56.4337 13.8126 49.0712 13.8247 48.6716 14.0305Z" fill="#C6A57C"/>
<path d="M21.6072 19.8067C20.9412 20.0731 20.808 20.8723 21.3529 21.3446L21.6799 21.6231H33.0506C41.2486 21.6231 44.506 21.5868 44.724 21.4899C45.39 21.1751 45.39 20.1337 44.724 19.8188C44.3607 19.6614 22.0068 19.6372 21.6072 19.8067Z" fill="#C6A57C"/>
<path d="M48.6716 19.843C48.0056 20.1821 47.9572 21.0297 48.5869 21.4415C48.8533 21.611 49.4103 21.6231 53.031 21.5989L57.1724 21.5626L57.4025 21.2719C57.5236 21.1145 57.6326 20.836 57.6326 20.6544C57.6326 20.4727 57.5236 20.1942 57.4025 20.0368L57.1724 19.7461L53.0673 19.7098C49.9189 19.6856 48.9017 19.7219 48.6716 19.843Z" fill="#C6A57C"/>
<path d="M48.4779 25.7766C48.0541 26.1399 48.0299 26.7333 48.4174 27.1086C48.6717 27.3751 48.7443 27.3751 52.7283 27.4114C56.2037 27.4356 56.8334 27.4235 57.1483 27.254C57.56 27.0481 57.7174 26.5879 57.56 26.1157C57.3541 25.5223 57.1483 25.4981 52.8252 25.4981H48.8049L48.4779 25.7766Z" fill="#C6A57C"/>
<path d="M4.73882 27.145C4.26655 27.3751 4.02437 27.6051 3.77007 28.0169L3.44312 28.586V31.0805V33.5751L3.8064 34.1563C4.04858 34.5438 4.35132 34.8344 4.70249 35.0282L5.24741 35.3067L18.5193 35.2825L31.7912 35.2462L32.2998 34.9071C32.5783 34.7255 32.9294 34.3501 33.0748 34.0594C33.3412 33.5751 33.3533 33.4176 33.3533 31.0684C33.3533 28.6587 33.3412 28.5739 33.0627 28.0774C32.8931 27.7868 32.5541 27.4114 32.2876 27.2298L31.8033 26.8907L18.5919 26.8544L5.38062 26.8301L4.73882 27.145ZM31.4037 28.9614C31.5005 29.2036 31.5005 32.9333 31.4037 33.1755C31.331 33.345 30.0837 33.3692 18.3982 33.3692C6.71265 33.3692 5.46538 33.345 5.39272 33.1755C5.24741 32.8001 5.30796 29.0704 5.46538 28.913C5.57437 28.804 8.62593 28.7676 18.4709 28.7676C30.0837 28.7676 31.331 28.7919 31.4037 28.9614Z" fill="#C6A57C"/>
<path d="M48.5866 31.4559C48.187 31.6497 48.0054 32.1825 48.2112 32.5942C48.5019 33.2239 48.6593 33.2481 52.8007 33.2481C56.7483 33.2481 57.2812 33.1876 57.5112 32.7637C57.7413 32.3399 57.6565 31.8313 57.3175 31.5649C57.0026 31.3227 56.8694 31.3106 52.9218 31.3227C50.3425 31.3227 48.7562 31.3712 48.5866 31.4559Z" fill="#C6A57C"/>
<path d="M48.5382 37.2805C48.0175 37.6801 47.9812 38.3583 48.4534 38.7821C48.6714 38.9758 49.0226 39.0001 52.5343 39.0364C54.6413 39.0606 56.5425 39.0364 56.7605 39.0001C57.6324 38.8426 57.9593 37.8739 57.3175 37.3774C57.0027 37.1352 56.8574 37.1231 52.8613 37.1231C49.8097 37.1352 48.6835 37.1715 48.5382 37.2805Z" fill="#C6A57C"/>
<path d="M4.59354 39.5692C3.51581 40.1141 3.30995 40.877 3.40682 43.9407C3.45526 45.4665 3.49159 45.7208 3.73378 46.1567C3.8912 46.4473 4.21815 46.7743 4.47245 46.9196C4.89628 47.1618 5.10214 47.1739 7.70565 47.1739C10.406 47.1739 10.5029 47.1618 10.9025 46.8954C11.1205 46.7501 11.4353 46.4352 11.5928 46.2051C11.8713 45.7934 11.8713 45.7329 11.8349 43.1778C11.7986 40.6954 11.7865 40.5501 11.5201 40.1868C11.3748 39.9809 11.0115 39.6903 10.733 39.5571C10.2486 39.327 9.99432 39.3028 7.66932 39.3028C5.27167 39.3028 5.10214 39.3149 4.59354 39.5692ZM10.0185 43.2626L9.98221 45.2969H7.68143H5.38065L5.34432 43.2626L5.32011 41.2403H7.68143H10.0428L10.0185 43.2626Z" fill="#C6A57C"/>
<path d="M15.3589 39.5813C15.032 39.763 14.7171 40.0536 14.5476 40.3442C14.2933 40.8044 14.2812 40.9133 14.3054 43.3837C14.3417 46.2294 14.366 46.302 15.25 46.8954C15.6375 47.1618 15.7464 47.1739 18.4468 47.1739C21.0624 47.1739 21.2683 47.1618 21.6558 46.9196C22.6003 46.3505 22.7578 45.8176 22.7578 43.2747C22.7457 40.6106 22.5882 40.102 21.5468 39.5692C21.0382 39.3149 20.8687 39.3028 18.4468 39.3028C16.0128 39.3028 15.8675 39.3149 15.3589 39.5813ZM20.796 43.2626L20.7597 45.2969H18.4589H16.1582L16.1218 43.42C16.1097 42.3907 16.1218 41.4825 16.146 41.3977C16.1945 41.2766 16.7394 41.2403 18.5195 41.2403H20.8203L20.796 43.2626Z" fill="#C6A57C"/>
<path d="M26.9232 39.4723C26.1845 39.7024 25.5912 40.211 25.24 40.9133L24.9373 41.5309V48.2032V54.8755L25.24 55.493C25.8697 56.7403 26.7294 57.1036 29.115 57.1036C31.5127 57.1036 32.4451 56.7161 33.0627 55.4446C33.3048 54.936 33.3533 54.6333 33.3896 53.0469C33.4138 52.0419 33.3896 51.0489 33.3291 50.8188C33.1111 49.9712 32.2877 49.7411 31.7185 50.3465C31.5005 50.5887 31.4763 50.7704 31.4763 52.5868C31.4763 54.5364 31.4763 54.5727 31.1736 54.8633C30.8951 55.154 30.8345 55.1661 29.1513 55.1661C27.2865 55.154 27.1048 55.1055 26.8748 54.5122C26.7052 54.0641 26.7052 42.3422 26.8748 41.8942C27.1048 41.3008 27.2865 41.2524 29.1513 41.2403C30.8345 41.2403 30.8951 41.2524 31.1736 41.543L31.4763 41.8337V44.6067C31.4763 47.2344 31.4884 47.404 31.7306 47.7067C32.0334 48.0942 32.6873 48.1426 33.0384 47.7915C33.3896 47.4403 33.438 46.9438 33.3896 44.1223C33.3533 41.7126 33.3291 41.5067 33.0748 40.9618C32.7115 40.2473 32.0818 39.7145 31.3068 39.4844C30.5439 39.2544 27.6376 39.2544 26.9232 39.4723Z" fill="#C6A57C"/>
<path d="M4.46034 49.4989C4.21815 49.6321 3.89119 49.9712 3.73377 50.2497C3.47948 50.6977 3.44315 50.9278 3.40682 52.6231C3.35838 54.6454 3.49159 55.7594 3.84276 56.2559C3.96385 56.4255 4.30291 56.6797 4.59354 56.8251C5.10213 57.0915 5.27166 57.1036 7.69354 57.1036C10.1275 57.1036 10.2728 57.0915 10.7814 56.8251C11.1084 56.6434 11.4111 56.3649 11.5806 56.0622C11.8349 55.6141 11.8592 55.4567 11.8592 53.0954C11.8592 50.6977 11.8471 50.5887 11.5806 50.1891C11.4353 49.9712 11.1205 49.6563 10.9025 49.511C10.5029 49.2446 10.406 49.2325 7.69354 49.2325C5.0658 49.2325 4.87205 49.2567 4.46034 49.4989ZM10.0185 53.1317L10.0428 55.1661H7.68143H5.3201V53.1922C5.3201 52.1024 5.35643 51.17 5.40487 51.1215C5.4533 51.0852 6.49471 51.061 7.72987 51.0731L9.98221 51.1094L10.0185 53.1317Z" fill="#C6A57C"/>
<path d="M15.2499 49.4989C14.3659 50.1044 14.3417 50.177 14.3054 52.9985C14.269 55.5415 14.269 55.5415 14.5718 56.0743C14.7776 56.4255 15.0561 56.6797 15.4073 56.8493C15.8917 57.0794 16.146 57.1036 18.471 57.1036C20.8686 57.1036 21.0382 57.0915 21.5468 56.8251C22.6245 56.2922 22.8061 55.6505 22.7335 52.611C22.685 50.4192 22.5518 50.0075 21.7284 49.5352C21.2319 49.2325 21.1835 49.2325 18.4346 49.2325C15.7464 49.2325 15.6374 49.2446 15.2499 49.4989ZM20.796 53.1438L20.8202 55.1661L18.4952 55.1419L16.1581 55.1055L16.1218 53.2286C16.1096 52.1993 16.1218 51.2911 16.146 51.2063C16.1944 51.0731 16.6909 51.0489 18.4831 51.0731L20.7596 51.1094L20.796 53.1438Z" fill="#C6A57C"/>
</svg>
