<svg width="62" height="62" viewBox="0 0 62 62" fill="none" xmlns="http://www.w3.org/2000/svg">
<path d="M44.623 0.169529C42.7098 0.496483 41.5352 0.883984 39.7914 1.79219C37.0789 3.18476 34.7418 5.5582 33.4098 8.2707L33.0102 9.08203L30.0312 6.12734C27.5488 3.65703 26.9797 3.14844 26.5559 3.01523C25.4297 2.68828 25.7809 2.39766 17.2922 10.8742L10.8137 19.8473C10.959 19.7746 14.4465 16.3598 18.5516 12.2547L26.0352 4.7832L29.1715 7.91953L32.3078 11.0559L32.1383 11.734C31.884 12.8359 31.7145 14.8824 31.7992 15.8633L31.8719 16.7715L29.1109 14.0105C26.9918 11.9156 26.2652 11.2617 26.0352 11.2617C25.8051 11.2617 23.5527 13.4414 15.5 21.482C4.66211 32.3078 5.02539 31.9809 4.09297 31.7871C3.66914 31.6902 2.49453 30.6488 2.22812 30.1281C2.02227 29.7406 2.01016 29.1473 2.1918 28.784C2.26445 28.6387 3.76602 27.0645 5.53398 25.2965C8.69453 22.1117 10.8137 19.8473 10.8137 19.8473L17.2922 10.8742C17.2922 10.8742 6.27266 21.8937 4.09297 24.0734C0.448047 27.7184 0.242188 28.009 0.242188 29.4258C0.242188 29.9949 0.326953 30.3824 0.532813 30.8184C0.908203 31.6176 2.54297 33.1918 3.30586 33.4824L3.875 33.7004V42.6855V51.6707L2.8457 51.7312C1.74375 51.7918 1.4168 51.9371 0.920313 52.6031C0.678125 52.918 0.666016 53.1117 0.629687 56.7445C0.593359 60.4621 0.605469 60.5711 0.859766 61.0191C1.00508 61.2734 1.31992 61.6004 1.57422 61.7457C2.01016 61.9879 2.1918 62 5.61875 62H12.3879L12.0609 61.7457C12.4484 61.3703 12.6422 60.5348 12.2668 60.1836H2.42188V58.7305V57.2773H25.3691H48.3164V58.7305V60.1836H30.2977H12.2668L12.0125 60.4621C11.6371 60.8617 11.6613 61.4309 12.0609 61.7457L12.3879 62H30.5641C47.6262 62 48.7645 61.9879 49.1641 61.782C49.3941 61.673 49.709 61.3945 49.8543 61.1645C50.1328 60.7527 50.1328 60.7043 50.1328 56.8777C50.1328 53.1238 50.1207 52.9906 49.8664 52.5789C49.6121 52.1793 48.8492 51.7191 48.4133 51.707C48.2074 51.707 48.1953 51.1984 48.1953 42.7098V33.7246L48.8977 33.3977C50.2781 32.7437 51.8281 30.8668 51.8281 29.8254C51.8281 29.341 51.9371 29.0625 52.1188 29.0625C52.4699 29.0625 54.7465 27.8273 55.6426 27.1613C59.566 24.1945 61.7699 19.8352 61.7699 15.0277C61.7699 11.9277 60.9344 9.15469 59.2391 6.61172C58.4277 5.38867 57.6406 4.60156 57.2289 4.60156C56.8293 4.60156 56.3086 5.09805 56.3086 5.47344C56.3086 5.76406 56.3934 5.89726 57.4469 7.27773C58.234 8.31914 59.1543 10.2687 59.5418 11.7219C59.8324 12.7633 59.8688 13.1266 59.8688 14.9551C59.8688 17.2074 59.6871 18.2367 58.9484 20.041C57.1562 24.3883 53.3902 27.343 48.7402 28.0332C46.0398 28.4328 43.7148 28.0938 41.2082 26.9434C38.6773 25.7809 36.316 23.4922 35.093 21.0098C33.9547 18.6969 33.7367 17.7766 33.7246 15.0762C33.7246 13.066 33.7488 12.7996 34.0516 11.7461C34.6328 9.67539 35.323 8.30703 36.5219 6.79336C38.7258 4.04453 41.9469 2.325 45.6402 1.92539C48.159 1.64687 50.8715 2.22812 53.2207 3.56015C53.7172 3.83867 54.2137 4.03242 54.4316 4.02031C54.8434 4.00821 55.3398 3.52383 55.3398 3.12422C55.3398 2.33711 52.3609 0.835545 49.709 0.290623C48.4738 0.0363274 45.7855 -0.0242195 44.623 0.169529ZM29.559 17.0258C32.2836 19.7504 32.6953 20.1984 32.9375 20.8039C34.2816 24.1461 37.1031 27.0645 40.518 28.6508C41.6805 29.1836 41.7895 29.2805 43.7754 31.2422C44.9137 32.3562 45.9551 33.3008 46.1125 33.3492L46.3789 33.434V37.2484V41.0508H44.4535C42.4676 41.0508 41.8621 41.1598 41.6562 41.5352C41.5836 41.6562 41.5352 42.6008 41.5352 43.6301C41.5352 46.1004 41.3535 45.943 44.2113 45.9914L46.3789 46.0277V48.8734V51.707H39.1738H31.9688V45.6645C31.9688 39.743 31.9688 39.6219 31.7145 39.307C31.3996 38.9074 30.8305 38.8832 30.4309 39.2586L30.1523 39.5129V45.616V51.707H25.8535H21.5547V42.625V33.543L25.8293 33.5672L30.0918 33.6035L30.1523 35.0688C30.2008 36.2918 30.2492 36.5945 30.443 36.8004C30.7457 37.1395 31.327 37.1273 31.6902 36.7883C31.9566 36.534 31.9688 36.4613 31.9688 34.427C31.9688 32.5016 31.9445 32.3078 31.7266 32.0898C31.5934 31.9566 31.3633 31.8234 31.218 31.7871C31.0605 31.7508 28.5297 31.7387 25.5992 31.7508C20.5375 31.7871 20.2348 31.7992 19.9926 32.0172L19.7383 32.2473V41.9832V51.707H12.7148H5.69141V49.5879V47.4688H7.20508H8.71875V48.6676C8.71875 49.6848 8.75508 49.9027 8.97305 50.1812L9.21523 50.4961H12.1094H15.0035L15.2457 50.1812C15.4758 49.8906 15.5 49.6969 15.5 48.1832C15.5 46.391 15.4031 46.0035 14.9309 45.7855C14.7613 45.7008 13.8289 45.6523 12.5938 45.6523H10.5352V44.393C10.5352 43.1699 10.523 43.1215 10.2203 42.8793C9.91758 42.6492 9.73594 42.625 7.79844 42.625H5.69141V38.0355V33.434L5.96992 33.3613C6.11523 33.3129 10.5957 28.9172 15.9238 23.6012C24.9937 14.5434 25.6477 13.9258 26.0352 13.9258C26.4105 13.9258 26.7012 14.1801 29.559 17.0258ZM49.8422 30.1281C49.6 30.5883 48.377 31.7023 48.0016 31.7992C47.3719 31.9566 46.8754 31.7387 45.9793 30.891L45.1195 30.0676L47.1176 29.9949C48.2074 29.9465 49.2973 29.8738 49.5273 29.8133C49.7574 29.7527 49.9633 29.7164 49.9875 29.7406C50.0117 29.7527 49.9512 29.9223 49.8422 30.1281ZM46.3789 43.5938V44.1992H44.8652H43.3516V43.5938V42.9883H44.8652H46.3789V43.5938ZM8.71875 45.0469V45.6523H7.20508H5.69141V45.0469V44.4414H7.20508H8.71875V45.0469ZM13.6594 48.0984L13.6957 48.6797H12.1215H10.5352V48.159C10.5352 47.8684 10.5715 47.5898 10.6199 47.5414C10.6684 47.5051 11.3586 47.4809 12.1578 47.493L13.623 47.5293L13.6594 48.0984ZM48.3164 54.5527V55.4609L25.4055 55.4367L2.48242 55.4004L2.44609 54.5164L2.40977 53.6445H25.3691H48.3164V54.5527Z" fill="#C6A57C"/>
<path d="M20.0047 20.9855C19.7504 21.2519 19.7383 21.3851 19.7383 23.1652C19.7383 24.9574 19.7504 25.0664 20.0047 25.3086C20.2227 25.5144 20.4285 25.5508 21.2156 25.5508H22.1602V26.798C22.1602 28.6629 22.0148 28.5781 25.4781 28.5781C27.0402 28.5781 28.3238 28.5297 28.457 28.457C28.784 28.2754 28.9414 27.682 28.9414 26.568V25.5508H29.8375C30.5398 25.5508 30.7941 25.5023 31.0121 25.3207C31.2906 25.0906 31.3027 25.0422 31.3027 23.1289C31.3027 21.2156 31.2906 21.1672 31.0121 20.9371C30.7457 20.7191 30.4672 20.707 25.5023 20.707H20.259L20.0047 20.9855ZM24.582 23.1289V23.7344H23.0684H21.5547V23.1289V22.5234H23.0684H24.582V23.1289ZM29.5469 23.1289V23.7344H27.9727H26.3984V23.1289V22.5234H27.9727H29.5469V23.1289ZM27.0039 26.1562V26.7617H25.4902H23.9766V26.1562V25.5508H25.4902H27.0039V26.1562Z" fill="#C6A57C"/>
<path d="M10.7168 31.5691C10.3051 31.6781 9.73594 32.1746 9.51797 32.6106C9.36055 32.9617 9.32422 33.4824 9.32422 35.7953C9.32422 38.3141 9.34844 38.5926 9.56641 39.0406C10.0508 40.0094 10.075 40.0215 13.5625 40.0578C16.6262 40.0941 16.6625 40.0941 17.0742 39.8156C17.8734 39.2828 17.9219 39.0406 17.9219 35.7711C17.9219 32.9375 17.9098 32.8406 17.6555 32.4531C17.0379 31.557 17.0137 31.5449 13.8289 31.5207C12.2547 31.5207 10.85 31.5328 10.7168 31.5691ZM16.0812 35.8074L16.1055 38.2656H13.623H11.1406V35.868C11.1406 34.5481 11.177 33.4219 11.2254 33.3734C11.2738 33.3371 12.3758 33.3129 13.6715 33.325L16.0449 33.3613L16.0812 35.8074Z" fill="#C6A57C"/>
<path d="M34.7902 31.7387C34.4996 31.884 34.1605 32.1867 34.0031 32.4289C33.7367 32.8648 33.7246 32.9738 33.7246 35.7832C33.7246 38.4957 33.7367 38.7137 33.9789 39.1133C34.1121 39.3434 34.4027 39.6582 34.6328 39.8035C35.0203 40.0699 35.1172 40.082 38.0234 40.082C40.9297 40.082 41.0266 40.0699 41.4141 39.8035C41.6441 39.6582 41.9348 39.3434 42.068 39.1133C42.3102 38.7137 42.3223 38.4957 42.3223 35.7832C42.3223 32.9254 42.3223 32.8648 42.0316 32.4047C41.5109 31.5691 41.1598 31.4844 38.0234 31.4844C35.5047 31.4844 35.2625 31.5086 34.7902 31.7387ZM40.4453 35.7832V38.2656H38.0234H35.6016V35.7832V33.3008H38.0234H40.4453V35.7832Z" fill="#C6A57C"/>
<path d="M48.377 4.5289C47.6383 4.73476 47.1055 5.27968 47.1055 5.83671C47.1055 6.23632 47.3477 6.50273 48.6797 7.54414C49.8664 8.47656 49.8906 8.41601 47.493 10.8137L45.4102 12.8965L44.6957 12.182L43.9691 11.4676L44.0418 10.5352C44.1266 9.40898 43.9086 8.53711 43.3273 7.72578C42.4676 6.51484 41.2688 5.88515 39.8398 5.87304C38.7742 5.87304 38.4231 5.98203 38.2051 6.43007C37.9387 6.93867 38.0477 7.20507 38.8832 8.06484C39.5856 8.77929 39.5977 8.80351 39.5008 9.26367C39.416 9.6875 39.3555 9.74804 38.9316 9.83281C38.4715 9.92968 38.4352 9.91757 37.7934 9.27578C36.9699 8.46445 36.643 8.31914 36.1102 8.53711C35.65 8.74297 35.541 9.06992 35.5531 10.293C35.5531 11.0316 35.6258 11.3344 35.9043 11.9156C36.3281 12.8117 37.0789 13.5625 37.9992 14.0105C38.6168 14.3133 38.8227 14.3496 39.9246 14.3496H41.1719L41.8621 15.0398L42.5645 15.7422L39.9367 18.3699C37.1031 21.2277 36.9215 21.4941 37.1758 22.4023C37.4301 23.3105 38.7621 24.4609 39.5613 24.4609C39.7914 24.4609 40.1668 24.352 40.4211 24.2309C40.6633 24.0977 41.9832 22.8746 43.3516 21.5062L45.834 19.0117L46.3789 19.5566L46.9359 20.1016L46.8148 20.8402C46.718 21.4336 46.7301 21.7363 46.8996 22.3781C47.4445 24.4852 49.2488 25.793 51.3922 25.6355C52.1309 25.5871 52.2762 25.5387 52.5305 25.248C52.9543 24.7516 52.8211 24.3156 51.9734 23.4559C51.3801 22.8625 51.2953 22.7051 51.3195 22.366C51.368 21.8816 51.5496 21.7 52.034 21.6516C52.3609 21.6273 52.5305 21.7242 53.1965 22.3781C54.0805 23.2258 54.3953 23.3105 54.9402 22.8383C55.2672 22.5598 55.2793 22.4992 55.2793 21.4094C55.2793 20.4164 55.243 20.1984 54.9402 19.593C54.0926 17.8734 52.1309 16.8199 50.3992 17.159L49.7816 17.2801L49.2367 16.723L48.6797 16.1539L50.0602 14.7855L51.4406 13.4051L51.9492 13.841C52.2277 14.0832 52.6152 14.3133 52.809 14.3496C53.0875 14.4102 53.1602 14.4949 53.1602 14.7492C53.1602 15.1367 54.7465 16.7715 55.2551 16.8926C55.8848 17.05 56.2238 16.832 57.7859 15.282C59.3359 13.7199 59.5539 13.3809 59.4086 12.7633C59.2875 12.291 57.907 10.9105 57.3137 10.6441C56.9262 10.4867 56.793 10.3535 56.793 10.1598C56.793 9.97812 56.0543 9.15468 54.468 7.54414C52.591 5.65507 51.9856 5.12226 51.3922 4.83164C50.5082 4.3957 49.2973 4.2746 48.377 4.5289ZM52.8816 8.60976C54.0199 9.76015 54.7828 10.6441 54.7707 10.7531C54.7465 10.8742 54.7102 11.1527 54.6617 11.3828C54.6012 11.7824 54.6375 11.8551 55.2672 12.4484C55.9695 13.1144 56.2965 13.2113 56.7566 12.8965C56.9746 12.7391 57.0231 12.7391 57.1684 12.9086C57.3016 13.066 57.1926 13.2234 56.4539 13.95C55.7152 14.7008 55.5699 14.7977 55.4004 14.6523C55.2309 14.5191 55.2309 14.4707 55.4004 14.2164C55.7031 13.7562 55.6184 13.4656 54.9524 12.7633C54.2863 12.0609 54.1531 12.0246 53.3418 12.2789C53.1481 12.3394 52.8695 12.1215 51.9613 11.2254L50.8352 10.075L51.1137 9.69961C51.6586 8.96093 51.3922 7.56836 50.5688 6.79336C50.3992 6.62382 50.2539 6.45429 50.2539 6.39375C50.2539 6.09101 51.1863 6.87812 52.8816 8.60976ZM42.1285 9.44531C42.2981 10.0023 42.2981 10.2324 42.1285 10.8137C41.9953 11.3344 41.4141 12.0367 40.9418 12.291C40.1184 12.7148 39.0285 12.618 38.3262 12.0609L37.9871 11.7824L38.7984 11.7098C39.7672 11.6129 40.5906 11.2738 40.8691 10.8621C41.1234 10.4625 41.4141 9.39687 41.4141 8.77929L41.4262 8.29492L41.7047 8.64609C41.8621 8.82773 42.0559 9.19101 42.1285 9.44531ZM49.8664 11.7824L50.1328 12.0609L48.7402 13.4414L47.3598 14.8219L47.0449 14.5312L46.7301 14.2406L48.0984 12.8723C48.8492 12.1215 49.491 11.5039 49.5395 11.5039C49.5758 11.5039 49.7211 11.625 49.8664 11.7824ZM48.0742 18.3094C48.0742 18.6242 47.493 18.1277 45.2406 15.8754C43.5938 14.2285 42.7461 13.2961 42.8066 13.1992C42.8672 13.1023 43.7512 13.9137 45.4828 15.6332C46.9117 17.0621 48.0742 18.2609 48.0742 18.3094ZM42.0559 20.1258L39.6098 22.5719L39.2949 22.2812L38.9801 21.9906L41.4383 19.5324L43.8965 17.0742L44.1992 17.3769L44.502 17.6797L42.0559 20.1258ZM51.8887 19.0965C52.0219 19.1328 52.2883 19.2781 52.482 19.4113L52.8453 19.6656L51.9008 19.823C51.3801 19.9078 50.7746 20.0652 50.5566 20.1621C50.0359 20.4164 49.6848 21.0945 49.491 22.2207L49.3336 23.1773L49.0672 22.802C48.2801 21.6879 48.5707 20.0773 49.6969 19.3871C50.3871 18.9633 51.041 18.8664 51.8887 19.0965Z" fill="#C6A57C"/>
</svg>
