<svg width="62" height="62" viewBox="0 0 62 62" fill="none" xmlns="http://www.w3.org/2000/svg">
<path d="M17.377 2.07071C14.0711 2.51875 11.0922 4.27461 9.13048 6.92656C8.46446 7.82265 7.59259 9.54219 7.37462 10.402C7.22931 10.9832 7.20509 11.0074 6.55118 11.2496C3.92345 12.2063 1.71954 14.6887 0.944543 17.5465C0.762902 18.2125 0.690246 18.8422 0.690246 19.8594C0.690246 21.5789 0.883996 22.3781 1.71954 24.0977C2.26446 25.1875 2.49454 25.5145 3.43907 26.459C4.96485 27.9848 6.20001 28.6023 9.36056 29.4258C9.83282 29.5469 9.91759 29.6195 9.86915 29.8012C9.74806 30.1645 8.96095 33.0586 8.96095 33.1191C8.96095 33.1555 8.21017 33.5551 7.27774 34.0152C5.534 34.8992 5.14649 35.2141 5.01329 35.9043C4.91642 36.4734 5.11017 36.9699 5.9336 38.2777C6.33321 38.8953 6.66017 39.4281 6.66017 39.4644C6.66017 39.5008 6.15157 39.7672 5.52189 40.0578C4.1172 40.7117 3.56017 41.1598 3.39064 41.7652C3.209 42.4434 3.33009 42.7945 4.22618 44.1992L5.04962 45.4707L3.64493 46.1973C1.94962 47.0691 1.64689 47.4203 1.71954 48.3769C1.76798 48.8734 1.9254 49.2125 2.59142 50.2418C3.03946 50.932 3.39064 51.5012 3.36642 51.5254C3.3422 51.5375 2.72462 51.8644 1.98595 52.2277C0.557043 52.9422 0.181652 53.2812 0.0484492 53.9594C-0.0605351 54.5648 0.0242305 54.7828 0.956652 56.248C2.0465 57.9555 2.65196 58.6457 3.53595 59.2269C6.09103 60.8738 9.8086 59.8566 11.1649 57.1441C11.3586 56.7687 12.4 53.2086 13.6231 48.8008C18.7695 30.0918 18.2004 32.0293 18.5395 32.0414C18.6969 32.0535 19.484 32.223 20.2832 32.441C22.0512 32.9012 23.468 33.0223 24.8363 32.8285C27.7547 32.3926 30.4551 30.4551 31.775 27.8273C32.4289 26.5074 32.6711 25.6234 32.7801 24.2551L32.8527 23.2621L33.0949 23.577C33.4219 23.9887 34.4633 24.4609 35.0566 24.4609H35.541L38.6895 28.5781C40.8086 31.3633 41.9348 32.7316 42.1648 32.8285C42.6129 33.0102 43.2547 32.9012 43.7512 32.55C45.3375 31.4359 61.5641 18.927 61.7094 18.709C62.0121 18.2367 62.0605 17.607 61.8184 17.2316C61.6973 17.0379 60.2562 15.1488 58.6215 13.0176C56.9867 10.8863 55.6668 9.05781 55.6789 8.96094C55.8242 7.94375 55.8242 7.38672 55.6668 7.01133C55.4246 6.41797 54.8918 5.83672 54.359 5.57031C53.7293 5.24336 37.3332 2.74883 36.2918 2.82148C35.5047 2.86992 35.093 3.11211 34.6449 3.79023C34.3906 4.18984 34.2332 4.2625 33.1313 4.60156C32.4531 4.80742 31.0727 5.26758 30.0434 5.63086L28.1785 6.29688L27.1977 5.35234C26.0231 4.21406 25.3813 3.76601 24.0492 3.13633C22.027 2.1918 19.4719 1.78008 17.377 2.07071ZM21.0098 4.05664C22.1238 4.27461 23.032 4.61367 23.9766 5.18281C24.909 5.75195 26.3016 6.92656 26.1805 7.03555C26.132 7.08398 25.2844 7.45937 24.3035 7.87109L22.5113 8.60976L22.1965 8.35547C21.6758 7.94375 20.816 7.61679 20.0895 7.54414C19.5082 7.48359 19.375 7.50781 19.1449 7.73789C18.9875 7.89531 18.8906 8.14961 18.8906 8.4039C18.8906 8.92461 19.2781 9.25156 20.0047 9.37265C20.5859 9.46953 20.5859 9.46953 19.5688 10.075C18.5879 10.6562 18.2731 11.5766 18.7453 12.4727C19.0359 13.0055 19.6172 13.2961 20.5617 13.393C21.4094 13.4898 21.4578 13.5988 20.8281 14.0105C20.2348 14.4223 19.1691 14.4344 18.4305 14.059C17.1953 13.4293 16.7836 12.1699 17.3285 10.7289C17.6555 9.89336 17.5707 9.50586 17.0258 9.25156C16.4688 8.98516 16.0328 9.20312 15.6453 9.9418C14.5797 12.0246 15.5606 14.7492 17.7524 15.8148C18.3699 16.1176 18.6 16.1539 19.5566 16.166C20.477 16.166 20.7555 16.1176 21.3125 15.8512C22.6203 15.2457 23.468 14.2043 23.807 12.7996C23.9766 12.1457 23.9887 11.8551 23.8797 11.298C23.807 10.9105 23.7344 10.4867 23.7102 10.3656C23.6859 10.1719 23.9766 10.0023 25.5266 9.36055C26.5438 8.93672 27.4277 8.62188 27.5125 8.67031C27.7184 8.80352 28.5297 10.6441 28.7719 11.5645C29.1109 12.8602 29.0867 15.1004 28.7113 16.6141L28.4207 17.7887L28.7356 18.2488C28.9172 18.5031 29.2805 18.9754 29.5348 19.3023C30.1645 20.0895 30.7094 21.4941 30.8789 22.7656C31.3633 26.2047 29.1594 29.6316 25.7809 30.6973C24.582 31.0727 23.2863 31.1816 22.2813 31C21.8453 30.9273 18.9391 30.1523 15.8027 29.2926C12.6785 28.4207 9.59064 27.573 8.96095 27.4035C6.07892 26.6406 4.29884 25.2844 3.24532 23.0441C2.71251 21.9301 2.54298 21.143 2.54298 19.8594C2.54298 17.8008 3.2211 16.1539 4.65001 14.7129C5.59454 13.7563 6.43009 13.2355 7.62892 12.8359C8.06485 12.6906 8.50079 12.4969 8.60978 12.4C8.71876 12.3031 8.9004 11.8551 9.02149 11.407C10.4383 6.12735 15.5484 3.00312 21.0098 4.05664ZM39.2465 5.50977C39.5371 5.60664 39.9488 5.82461 40.1426 5.99414L40.5059 6.29688L40.1426 6.21211C39.9488 6.16367 39.4039 6.12734 38.9316 6.12734C37.8902 6.11523 37.418 6.39375 37.1273 7.18086C37.0184 7.47149 36.5824 10.8863 36.0981 15.0641C35.6379 19.1207 35.202 22.4871 35.1293 22.5598C34.8992 22.7898 34.3301 22.257 34.2938 21.7848C34.2574 21.3004 36.0496 5.8125 36.1465 5.70351C36.2797 5.57031 37.4543 5.35234 38.0961 5.34023C38.4352 5.34023 38.9438 5.41289 39.2465 5.50977ZM47.9531 6.29688C50.6535 6.69648 53.0633 7.08398 53.3176 7.15664C54.032 7.35039 54.2863 8.23438 53.6203 8.23438C52.9301 8.23438 43.0488 6.66016 43.0125 6.55117C42.9883 6.47852 42.843 6.23633 42.6734 5.99414C42.3102 5.44922 42.3102 5.41289 42.7219 5.49766C42.9035 5.53399 45.2527 5.89727 47.9531 6.29688ZM33.7973 9.4332C33.5914 11.1648 33.4219 12.618 33.4219 12.6543C33.4219 12.7391 31.4844 12.7027 31.1332 12.6059C30.8789 12.5332 30.8063 12.4121 30.6852 11.7461C30.5035 10.7531 30.116 9.60273 29.6559 8.70664C29.4621 8.31914 29.3047 7.96797 29.3047 7.93164C29.3047 7.89531 29.45 7.81055 29.6438 7.73789C30.2856 7.47149 34.0879 6.21211 34.1242 6.23633C34.1484 6.26055 33.991 7.68945 33.7973 9.4332ZM41.3899 8.29492C41.6563 8.34336 41.7773 8.42812 41.7773 8.58554C41.7773 8.75508 41.6563 8.82773 41.2809 8.88828C40.5785 8.99726 40.1789 9.23945 39.6219 9.86914C38.859 10.741 38.6652 11.9398 39.1254 12.957C39.4524 13.6715 39.7672 14.0105 40.4938 14.3738C42.4191 15.3547 44.7441 13.95 44.732 11.8066C44.7199 10.9711 44.502 10.3898 43.9691 9.78437C43.4969 9.23945 43.4606 8.71875 43.8965 8.71875C44.0539 8.71875 46.173 9.02148 48.5828 9.38477C51.0047 9.74805 53.2207 10.075 53.4992 10.0992C53.8141 10.1234 54.1168 10.2324 54.25 10.3656C54.3711 10.4988 55.7031 12.2184 57.2168 14.2164L59.9777 17.825L59.566 18.152C59.348 18.3215 58.3672 19.0723 57.3984 19.8109L55.6305 21.1672L53.6445 18.5637C51.4527 15.6816 50.8352 15.0641 49.5879 14.4586C47.8805 13.6352 46.282 13.5988 44.7926 14.3496C44.1387 14.6766 43.957 14.8945 43.957 15.3426C43.957 16.1781 44.732 16.4566 45.6887 15.9602C46.9238 15.3184 48.8613 15.7906 50.0359 17.0258C50.5809 17.5949 54.1289 22.1602 54.1168 22.2812C54.1168 22.366 48.8977 26.3258 48.7281 26.3742C48.607 26.4105 45.9914 23.1168 44.841 21.482C44.393 20.8523 44.0539 19.8473 43.9934 18.9148C43.9328 18.1641 43.8723 17.9945 43.618 17.8008C43.2426 17.498 42.8551 17.498 42.5039 17.7766C41.9227 18.2488 42.1164 20.1863 42.8672 21.7242C43.0731 22.1359 44.1023 23.6012 45.168 24.9937C46.2336 26.3863 47.1055 27.5609 47.1055 27.6094C47.1055 27.6578 46.1488 28.4207 44.9863 29.3168C43.1699 30.6852 42.8309 30.9031 42.6977 30.7457C42.6129 30.6488 41.2809 28.9293 39.743 26.907L36.9457 23.25L37.0547 22.6445C37.1152 22.3176 37.527 18.9148 37.9629 15.1125C38.3988 11.298 38.7742 8.11328 38.8106 8.04062C38.8469 7.91953 39.5371 7.99219 41.3899 8.29492ZM22.0391 11.4918C22.0391 11.7219 21.9906 11.7582 21.7727 11.6977C21.6152 11.6613 21.3488 11.625 21.1672 11.625C20.6828 11.625 20.7434 11.4676 21.3488 11.177C21.8938 10.9105 22.0391 10.9711 22.0391 11.4918ZM41.184 11.1164C41.1234 11.2375 40.966 11.4191 40.857 11.516C40.6633 11.6734 40.6633 11.6613 40.857 11.2859C40.966 11.0801 41.1113 10.8984 41.184 10.8984C41.2566 10.8984 41.2566 10.9711 41.184 11.1164ZM42.8672 12.0973C42.8672 12.1578 42.7582 12.3273 42.6129 12.4848L42.3707 12.7754L42.5766 12.3758C42.8066 11.9762 42.8672 11.9156 42.8672 12.0973ZM33.1191 14.6766C33.1918 14.7492 32.5016 20.6949 32.4168 20.7797C32.3805 20.816 32.2957 20.6344 32.2109 20.3801C32.0051 19.7504 31.3512 18.5879 30.8426 17.934L30.4188 17.4012L30.5762 16.723C30.6731 16.3477 30.782 15.6938 30.8305 15.2699L30.9152 14.4949L31.993 14.5555C32.5863 14.5918 33.0949 14.6523 33.1191 14.6766ZM12.5816 30.3219C12.9328 30.4187 13.2477 30.5277 13.284 30.552C13.3082 30.5883 12.291 34.3785 11.0317 38.9922C9.76017 43.5937 8.71876 47.5414 8.71876 47.7715C8.71876 48.5223 9.60274 48.934 10.1356 48.4375C10.4383 48.159 10.2203 48.8977 12.8965 39.1738C14.059 34.9113 15.052 31.327 15.0883 31.218C15.1488 31.0363 15.1973 31.0363 15.7785 31.2059C16.1297 31.3027 16.4203 31.3996 16.4445 31.4238C16.493 31.4602 9.97814 55.1461 9.72384 55.8242C9.46954 56.5266 8.92462 57.2168 8.33126 57.6043C8.06485 57.7617 7.82267 57.8828 7.79845 57.8586C7.77423 57.8344 8.13751 56.4418 8.59767 54.7586C9.06993 53.0875 9.44532 51.5254 9.44532 51.2953C9.44532 50.9926 9.36056 50.8109 9.13048 50.6293C8.69454 50.2902 8.40392 50.3144 8.01642 50.7019C7.75001 50.9805 7.51993 51.6465 6.73282 54.5769C6.20001 56.5266 5.70353 58.125 5.64298 58.125C5.34024 58.125 4.26251 57.5316 3.91134 57.1684C3.41485 56.684 1.87696 54.3348 2.01017 54.2863C2.07071 54.2621 2.72462 53.9351 3.45118 53.5476C4.67423 52.918 4.80743 52.809 5.06173 52.2883C5.44923 51.5254 5.35235 51.1258 4.40782 49.6363C3.984 48.9703 3.63282 48.3769 3.63282 48.3406C3.63282 48.2922 4.26251 47.941 5.03751 47.5414C6.62384 46.7422 6.90235 46.4394 6.90235 45.5191C6.90235 45.059 6.79337 44.7926 6.26056 43.9328C5.89728 43.3637 5.52189 42.7703 5.4129 42.625L5.20704 42.3344L6.62384 41.5957C8.21017 40.7844 8.59767 40.3848 8.59767 39.5734C8.59767 39.0285 8.44024 38.7016 7.53204 37.3332C7.16876 36.7762 6.89024 36.3039 6.91446 36.2797C6.93868 36.2555 7.67735 35.8801 8.56134 35.4441C9.57853 34.9234 10.2324 34.5238 10.3899 34.3059C10.5231 34.1242 10.8621 33.107 11.1527 32.0535C11.4434 31.0121 11.734 30.1523 11.8067 30.1523C11.8672 30.1523 12.2184 30.2371 12.5816 30.3219Z" fill="#C6A57C"/>
</svg>
