<svg width="622" height="210" viewBox="0 0 622 210" fill="none" xmlns="http://www.w3.org/2000/svg">
<path d="M18.2207 157.559H128.816C132.82 157.559 136.238 156.143 139.07 153.311C141.902 150.479 143.318 147.061 143.318 143.057C143.318 139.053 141.902 135.635 139.07 132.803C136.238 129.971 132.82 128.555 128.816 128.555H67.7324C50.8379 128.555 36.4336 122.598 24.5195 110.684C12.6055 98.6719 6.64844 84.2676 6.64844 67.4707C6.64844 50.5762 12.6055 36.1719 24.5195 24.2578C36.4336 12.3438 50.8379 6.38672 67.7324 6.38672H178.328V52.8223H67.7324C63.7285 52.8223 60.3105 54.2871 57.4785 57.2168C54.6465 60.0488 53.2305 63.4668 53.2305 67.4707C53.2305 71.4746 54.6465 74.8926 57.4785 77.7246C60.3105 80.5566 63.7285 81.9727 67.7324 81.9727H128.816C145.613 81.9727 160.018 87.9297 172.029 99.8438C183.943 111.855 189.9 126.26 189.9 143.057C189.9 159.951 183.943 174.355 172.029 186.27C160.018 198.184 145.613 204.141 128.816 204.141H18.2207V157.559ZM195.76 143.057C195.76 124.6 189.217 108.828 176.131 95.7422C163.045 82.6562 147.273 76.1133 128.816 76.1133H67.7324C65.291 76.1133 63.2402 75.2832 61.5801 73.623C59.8223 71.8652 58.9434 69.8145 58.9434 67.4707C58.9434 65.0293 59.8223 62.9785 61.5801 61.3184C63.2402 59.5605 65.291 58.6816 67.7324 58.6816H184.041V0.527344H67.7324C49.2754 0.527344 33.5039 7.07031 20.418 20.1562C7.33203 33.2422 0.789062 49.0137 0.789062 67.4707C0.789062 85.9277 7.33203 101.699 20.418 114.785C33.5039 127.871 49.2754 134.414 67.7324 134.414H128.816C131.258 134.414 133.309 135.244 134.969 136.904C136.727 138.662 137.605 140.713 137.605 143.057C137.605 145.498 136.727 147.549 134.969 149.209C133.309 150.967 131.258 151.846 128.816 151.846H12.3613V210H128.816C147.273 210 163.045 203.457 176.131 190.371C189.217 177.285 195.76 161.514 195.76 143.057ZM213.484 0.527344V210H271.639V128.555H355.135V81.9727H271.639V58.6816H393.807V0.527344H213.484ZM219.344 6.38672H388.094V52.8223H265.926V87.832H349.275V122.695H265.926V204.141H219.344V6.38672ZM560.213 193.887C546.443 200.723 531.795 204.141 516.268 204.141C489.021 204.141 465.73 194.473 446.395 175.137L444.051 172.939C436.434 164.736 430.33 155.557 425.74 145.4C420.857 134.268 418.123 122.598 417.537 110.391V110.244C417.439 109.561 417.391 108.828 417.391 108.047V107.754C417.391 106.875 417.391 106.045 417.391 105.264C417.391 104.482 417.391 103.652 417.391 102.773V102.48C417.391 101.699 417.439 100.918 417.537 100.137C418.123 87.832 420.857 76.1621 425.74 65.127C430.721 53.9941 437.605 44.0332 446.395 35.2441C455.086 26.5527 464.998 19.7168 476.131 14.7363C487.166 9.85352 498.836 7.11914 511.141 6.5332H511.287C511.873 6.43555 512.557 6.38672 513.338 6.38672H513.631H513.777H516.268C541.365 6.38672 563.289 14.6875 582.039 31.2891L548.934 64.3945C539.461 56.7773 528.572 52.9688 516.268 52.9688C510.408 52.9688 504.744 53.8965 499.275 55.752H499.129C499.031 55.8496 498.934 55.8984 498.836 55.8984C498.445 55.9961 497.908 56.1914 497.225 56.4844L496.932 56.6309C496.639 56.7285 496.395 56.8262 496.199 56.9238C496.004 57.0215 495.76 57.1191 495.467 57.2168L495.32 57.3633H495.174C494.588 57.6562 494.1 57.8516 493.709 57.9492C493.611 58.0469 493.514 58.0957 493.416 58.0957L493.27 58.2422C475.887 66.7383 466.17 80.6055 464.119 99.8438V99.9902C464.119 100.576 464.07 101.309 463.973 102.188C463.973 102.383 463.973 102.529 463.973 102.627C463.973 103.506 463.973 104.385 463.973 105.264C463.973 106.143 463.973 107.021 463.973 107.9C463.973 107.998 463.973 108.145 463.973 108.34C464.07 109.121 464.119 109.854 464.119 110.537C464.119 110.635 464.119 110.684 464.119 110.684C465.584 124.062 471.248 135.244 481.111 144.229C491.072 153.115 502.791 157.559 516.268 157.559C525.545 157.559 534.236 155.215 542.342 150.527C550.545 145.84 556.941 139.492 561.531 131.484L566.658 122.695H539.559V87.832H615.145V204.141H568.709V189.639L560.213 193.887ZM621.004 210V81.9727H533.699V128.555H556.551C547.566 144.082 534.139 151.846 516.268 151.846C504.256 151.846 493.855 147.793 485.066 139.688C476.18 131.68 471.15 121.816 469.979 110.098C469.881 109.414 469.832 108.682 469.832 107.9C469.734 107.314 469.734 107.217 469.832 107.607C469.734 106.826 469.686 106.045 469.686 105.264C469.686 104.482 469.734 103.701 469.832 102.92C469.734 103.311 469.734 103.213 469.832 102.627C469.832 101.846 469.881 101.162 469.979 100.576V100.43C471.736 83.3398 480.379 70.9863 495.906 63.3691C496.199 63.2715 496.297 63.2227 496.199 63.2227C496.492 63.125 496.932 62.9297 497.518 62.6367C498.104 62.4414 498.396 62.2949 498.396 62.1973C498.494 62.1973 498.836 62.0996 499.422 61.9043C500.008 61.709 500.447 61.5137 500.74 61.3184C500.545 61.416 500.691 61.3672 501.18 61.1719C506.062 59.5117 511.092 58.6816 516.268 58.6816C529.158 58.6816 540.145 63.2227 549.227 72.3047L590.389 31.1426C569.881 10.7324 545.174 0.527344 516.268 0.527344C515.389 0.527344 514.51 0.527344 513.631 0.527344H513.191C512.312 0.527344 511.531 0.576172 510.848 0.673828C484.09 2.04102 461.189 12.1973 442.146 31.1426C423.201 50.1855 413.045 73.0859 411.678 99.8438C411.678 100.625 411.629 101.455 411.531 102.334V102.627C411.531 103.506 411.531 104.385 411.531 105.264C411.531 106.143 411.531 107.021 411.531 107.9V108.193C411.629 109.072 411.678 109.902 411.678 110.684C413.045 137.441 423.201 160.342 442.146 179.385L442.293 179.238C462.703 199.746 487.361 210 516.268 210C532.674 210 548.201 206.338 562.85 199.014V210H621.004Z" fill="#FAFAFA"/>
</svg>
