<svg width="62" height="62" viewBox="0 0 62 62" fill="none" xmlns="http://www.w3.org/2000/svg">
<path d="M0.520703 3.99609C0.375391 4.05664 0.205859 4.21406 0.133203 4.34726C0.0363281 4.50469 0 7.76211 0 14.6523V24.7152L0.302734 25.0059C0.593359 25.3086 0.629688 25.3086 2.5793 25.3086C4.40781 25.3086 4.58945 25.2844 4.89219 25.0543C5.19492 24.8121 5.20703 24.7637 5.20703 23.6012V22.4023H8.11328H11.0195V24.8848V27.3672H9.86914C8.80352 27.3672 8.68242 27.3914 8.41602 27.6699C8.11328 27.9605 8.11328 27.9969 8.11328 29.9465C8.11328 31.775 8.1375 31.9566 8.36758 32.2594C8.60977 32.5621 8.6582 32.5742 9.80859 32.5742H11.0074L11.0922 42.4676L11.4565 39.4239L12.5211 39.1012L12.8359 35.7105V32.5742H18.7695H24.7031V35.9285C24.7031 39.6461 24.8121 40.4816 25.3934 41.5594C26.1441 42.9641 27.7668 44.1023 29.2441 44.2961L29.9707 44.3809L30.007 50.3629L30.0312 56.3449L27.6457 56.2723C25.0785 56.1996 23.7707 55.9816 22.2812 55.4246C17.498 53.6203 14.168 49.7574 13.1387 44.8168C12.5211 41.4457 12.8359 35.7105 12.8359 35.7105L12.5211 39.1012L11.4565 39.4239C11.4565 39.4239 11.0604 37.0652 11.0922 42.4676C11.1406 46.4516 12.7027 50.1934 15.5848 53.1723C17.9703 55.6426 20.8766 57.1926 24.2793 57.8344C25.357 58.0402 26.1199 58.0645 31.3633 58.0645C36.982 58.0645 37.2848 58.0523 38.4715 57.7859C42.4434 56.9141 45.6402 54.9402 48.0137 51.9008C50.4477 48.7523 51.4648 45.4707 51.4648 40.6512V39.3555H52.6152C53.6809 39.3555 53.802 39.3312 54.0684 39.0527C54.3711 38.7621 54.3711 38.7258 54.3711 36.752C54.3711 34.7781 54.3711 34.7418 54.0684 34.4512C53.802 34.1727 53.6809 34.1484 52.6152 34.1484H51.4648V32.7559V31.3633H54.1289H56.793V32.5621C56.793 33.7246 56.8051 33.773 57.1078 34.0152C57.4105 34.2453 57.5922 34.2695 59.4207 34.2695C61.3703 34.2695 61.4066 34.2695 61.6973 33.9668L62 33.6762V23.5527C62 13.6473 62 13.4414 61.7578 13.1992C61.4066 12.848 61.1281 12.8117 59.118 12.8602C56.8172 12.9086 56.8777 12.8602 56.793 14.5676L56.7324 15.8027L52.7363 15.8633C48.0863 15.8633 45.3617 16.9895 45.1437 17.0742C44.5383 17.3406 47.6383 17.0984 48.0863 17.5102C48.3164 17.7281 48.5586 17.7281 52.5668 17.6918L56.793 17.6555L56.7687 23.577L56.7324 29.4863L53.6203 29.5469L50.4961 29.6074L50.1086 30.007L49.709 30.3945L49.6484 32.2473L49.5879 34.0879H43.6543H37.7207L37.7449 31.9082C37.7691 29.5105 37.9023 28.5297 38.3504 27.0645C39.4402 23.577 41.9348 20.6949 45.3133 18.9996C46.2578 18.5273 48.5217 17.7285 52.5668 17.6918C52.6879 17.2316 53.1117 16.0449 52.7363 15.8633C52.4699 15.7422 45.7008 16.8684 45.1437 17.0742C42.177 18.1762 38.8953 21.3367 37.418 24.4973C36.3402 26.798 36.0012 28.4207 35.8801 31.8113L35.8074 34.1484H34.6691C33.6156 34.1484 33.5066 34.1727 33.2281 34.4512L32.9254 34.7539L32.9617 36.8246C33.0102 39.4039 32.9738 39.3555 34.7055 39.3555C35.8074 39.3555 35.8438 39.3676 35.8438 39.6219C35.8438 40.082 35.2988 41.0871 34.8023 41.5594C34.5359 41.8016 34.0637 42.1285 33.7246 42.2859C33.1797 42.5402 32.9496 42.5645 31.2422 42.5645C29.4742 42.5645 29.3289 42.5402 28.6992 42.2496C27.8516 41.85 27.2945 41.293 26.8949 40.4453C26.5801 39.7793 26.5801 39.7551 26.5438 36.1707L26.5074 32.5742H27.7063C29.4984 32.5742 29.4742 32.5984 29.5227 30.2734C29.5832 27.4398 29.5469 27.3672 27.7305 27.3672H26.5195V24.0613C26.5195 20.4043 26.3984 19.2902 25.8051 17.4738C24.1461 12.3879 20.0773 8.63398 14.725 7.24141C13.8531 7.01133 13.2719 6.975 9.50586 6.91445L5.26758 6.8418L5.20703 5.60664C5.12227 3.88711 5.20703 3.94766 2.74883 3.91133C1.67109 3.89922 0.666016 3.93555 0.520703 3.99609ZM3.39062 14.5918V23.4922H2.60352H1.81641V14.5918V5.69141H2.60352H3.39062V14.5918ZM13.95 8.96094C18.5395 9.90547 22.3418 13.1992 23.9281 17.607C24.5941 19.4719 24.7031 20.4285 24.7031 24.1098V27.3672H18.7695H12.8359V24.5457C12.8359 20.3922 13.0418 20.5859 8.41602 20.5859H5.20703V14.6523V8.71875H8.97305C12.291 8.71875 12.8844 8.74297 13.95 8.96094ZM60.1836 23.5527V32.4531H59.3965H58.6094V23.5527V14.6523H59.3965H60.1836V23.5527ZM27.7305 29.9707V30.7578H18.8301H9.92969V29.9707V29.1836H18.8301H27.7305V29.9707ZM52.5547 36.752V37.5391H43.6543H34.7539V36.752V35.9648H43.6543H52.5547V36.752ZM49.6484 40.6512C49.6484 43.6785 49.2125 46.0398 48.2801 48.0016C46.1125 52.5789 41.8742 55.6184 36.873 56.1875C36.2797 56.248 34.9234 56.3086 33.882 56.3086H31.9688V50.375C31.9688 45.7129 32.0051 44.4414 32.1262 44.4414C32.1988 44.4414 32.6469 44.3809 33.107 44.3203C35.3352 43.9934 37.1637 42.2738 37.5754 40.0941L37.7207 39.3555H43.6785H49.6484V40.6512Z" fill="#C6A57C"/>
</svg>
