<svg width="8" height="13" viewBox="0 0 8 13" fill="none" xmlns="http://www.w3.org/2000/svg">
<path d="M0.552 12V0.799999H7.096V2.64H2.52V5.136C2.95733 5.072 3.45867 5.04 4.024 5.04C5.18667 5.04 6.104 5.344 6.776 5.952C7.448 6.56 7.784 7.38133 7.784 8.416C7.784 9.57867 7.40533 10.48 6.648 11.12C5.90133 11.7493 4.84 12.064 3.464 12.064C3.208 12.064 2.64267 12.0533 1.768 12.032C1.59733 12.032 1.416 12.0267 1.224 12.016C1.032 12.016 0.882667 12.0107 0.776 12C0.68 12 0.605333 12 0.552 12ZM3.864 6.88C3.45867 6.88 3.01067 6.912 2.52 6.976V10.16C3.04267 10.2027 3.45867 10.224 3.768 10.224C5.144 10.224 5.832 9.66933 5.832 8.56C5.832 8.03733 5.66667 7.62667 5.336 7.328C5.00533 7.02933 4.51467 6.88 3.864 6.88Z" fill="#C6A57C"/>
</svg>
