<svg width="16" height="16" viewBox="0 0 16 16" fill="none" xmlns="http://www.w3.org/2000/svg">
<path fill-rule="evenodd" clip-rule="evenodd" d="M2.0378 0.6981C2.2084 0.527756 2.41325 0.395614 2.63878 0.31043C2.86432 0.225246 3.10538 0.188965 3.34599 0.203992C3.58661 0.219019 3.82128 0.28501 4.03446 0.397593C4.24765 0.510176 4.43447 0.666779 4.58255 0.857025L6.33267 3.10537C6.65345 3.5178 6.76655 4.05502 6.6398 4.56202L6.10647 6.69727C6.0789 6.80787 6.08039 6.92371 6.1108 7.03356C6.14121 7.14341 6.1995 7.24353 6.28002 7.3242L8.6756 9.71977C8.75636 9.80046 8.85665 9.85885 8.96669 9.88927C9.07672 9.91968 9.19276 9.92108 9.3035 9.89332L11.4378 9.36C11.688 9.29744 11.9491 9.29258 12.2015 9.34579C12.4538 9.399 12.6908 9.50888 12.8944 9.66712L15.1428 11.4163C15.951 12.0451 16.0251 13.2395 15.3017 13.962L14.2935 14.9701C13.572 15.6916 12.4937 16.0085 11.4885 15.6546C8.91563 14.7493 6.57961 13.2764 4.65372 11.3451C2.72253 9.41949 1.24962 7.08382 0.344222 4.51132C-0.00872797 3.50707 0.308147 2.42775 1.02965 1.70625L2.0378 0.6981Z" fill="#C6A57C"/>
</svg>
