<svg width="16" height="16" viewBox="0 0 16 16" fill="none" xmlns="http://www.w3.org/2000/svg">
<g clip-path="url(#clip0_59_778)">
<path fill-rule="evenodd" clip-rule="evenodd" d="M7.76164 15.3697L7.9999 15.0317L7.76164 15.3697ZM8.23815 15.3697L8.2398 15.3688L8.24394 15.3659L8.25635 15.3564L8.30516 15.3213C8.34652 15.2907 8.40691 15.246 8.48302 15.1872C8.63524 15.0706 8.85116 14.8989 9.10885 14.6785C9.78532 14.1003 10.4179 13.4726 11.0012 12.8006C12.3696 11.218 13.7908 8.95912 13.7908 6.37679C13.7908 4.83393 13.1811 3.35311 12.0957 2.26111C11.5592 1.72065 10.9212 1.29162 10.2183 0.99872C9.51533 0.70582 8.76141 0.554831 7.9999 0.554443C7.23841 0.554777 6.48451 0.705701 5.78158 0.998529C5.07865 1.29136 4.44057 1.72031 3.90407 2.26069C2.81762 3.35519 2.20826 4.83503 2.20899 6.3772C2.20899 8.95912 3.63024 11.218 4.99855 12.8006C5.58193 13.4726 6.21447 14.1003 6.89094 14.6785C7.14904 14.8989 7.36455 15.0706 7.51677 15.1872C7.59143 15.2448 7.66685 15.3013 7.74303 15.3568L7.75626 15.3659L7.75999 15.3688L7.76164 15.3697C7.90435 15.4702 8.09545 15.4702 8.23815 15.3697ZM7.9999 15.0317L8.23815 15.3697L7.9999 15.0317ZM10.0681 6.34535C10.0681 6.89387 9.85018 7.41992 9.46232 7.80778C9.07446 8.19564 8.54841 8.41353 7.9999 8.41353C7.45138 8.41353 6.92533 8.19564 6.53747 7.80778C6.14961 7.41992 5.93171 6.89387 5.93171 6.34535C5.93171 5.79684 6.14961 5.27079 6.53747 4.88293C6.92533 4.49507 7.45138 4.27717 7.9999 4.27717C8.54841 4.27717 9.07446 4.49507 9.46232 4.88293C9.85018 5.27079 10.0681 5.79684 10.0681 6.34535Z" fill="#C6A57C"/>
</g>
<defs>
<clipPath id="clip0_59_778">
<rect width="15.6" height="15.6" fill="white" transform="translate(0.199951 0.199951)"/>
</clipPath>
</defs>
</svg>
