<svg width="16" height="16" viewBox="0 0 16 16" fill="none" xmlns="http://www.w3.org/2000/svg">
<g clip-path="url(#clip0_59_757)">
<path d="M1.15367 2.56751C1.06531 2.59493 0.992188 2.62844 0.992188 2.64368C0.992188 2.66196 2.50953 4.19454 4.36812 6.05313L7.74102 9.42907L7.88727 9.4504C8.22547 9.4961 7.96344 9.73071 11.6532 6.03485C13.4996 4.1854 15.0078 2.65891 15.0078 2.64368C15.0078 2.62844 14.9286 2.59188 14.8311 2.56446C14.6696 2.51876 14.0633 2.51571 7.98172 2.51876C2.05555 2.5218 1.29383 2.52485 1.15367 2.56751Z" fill="#C6A57C"/>
<path d="M0.273162 3.40526C0.218318 3.53019 0.215271 3.72519 0.206131 7.93597C0.200037 11.7811 0.206131 12.357 0.24574 12.491C0.270115 12.5764 0.303631 12.6678 0.321912 12.6921C0.346287 12.7287 0.827693 12.2625 2.7198 10.3704L5.09027 7.99995L2.72894 5.63862C1.43097 4.34066 0.358475 3.2773 0.349334 3.2773C0.337146 3.2773 0.303631 3.33519 0.273162 3.40526Z" fill="#C6A57C"/>
<path d="M13.2712 5.63862L10.9099 7.99995L13.2804 10.3704C15.1725 12.2625 15.6539 12.7287 15.6783 12.6921C15.6965 12.6678 15.7301 12.5764 15.7544 12.491C15.794 12.357 15.8001 11.7811 15.794 7.93597C15.7849 3.72519 15.7819 3.53019 15.727 3.40526C15.6965 3.33519 15.663 3.2773 15.6508 3.2773C15.6417 3.2773 14.5692 4.34066 13.2712 5.63862Z" fill="#C6A57C"/>
<path d="M3.32914 10.9859C2.04336 12.2748 0.992188 13.3412 0.992188 13.3564C0.992188 13.3716 1.07141 13.4082 1.16891 13.4356C1.33039 13.4813 1.93977 13.4844 8 13.4844C14.0602 13.4844 14.6696 13.4813 14.8311 13.4356C14.9286 13.4082 15.0078 13.3716 15.0078 13.3564C15.0078 13.3412 13.9536 12.2717 12.6648 10.9768L10.3217 8.62461L9.57828 9.35891C8.95062 9.98352 8.80742 10.1084 8.63984 10.1877C8.22852 10.3887 7.76844 10.3887 7.3632 10.1907C7.19258 10.1084 7.05242 9.98656 6.42781 9.365C6.02562 8.96586 5.68742 8.63984 5.67828 8.63984C5.67219 8.63984 4.61187 9.69406 3.32914 10.9859Z" fill="#C6A57C"/>
</g>
<defs>
<clipPath id="clip0_59_757">
<rect width="15.6" height="15.6" fill="white" transform="translate(0.199951 0.199951)"/>
</clipPath>
</defs>
</svg>
